<!DOCTYPE svg PUBLIC "-//W3C//DTD SVG 20010904//EN" "http://www.w3.org/TR/2001/REC-SVG-20010904/DTD/svg10.dtd">
<svg version="1.0" xmlns="http://www.w3.org/2000/svg" width="650px" height="651px" viewBox="0 0 6500 6510" preserveAspectRatio="xMidYMid meet">
<g id="layer101" fill="#636362" stroke="none">
 <path d="M0 3255 l0 -3255 3250 0 3250 0 0 3255 0 3255 -3250 0 -3250 0 0 -3255z"/>
 </g>
<g id="layer102" fill="#81817f" stroke="none">
 <path d="M0 3255 l0 -3255 3250 0 3250 0 0 3255 0 3255 -3250 0 -3250 0 0 -3255z m3288 2667 c17 -9 80 -42 140 -73 59 -31 152 -80 206 -108 55 -28 106 -57 114 -63 8 -7 22 -17 32 -23 76 -43 184 -110 231 -144 31 -23 60 -41 64 -41 3 0 28 -19 55 -41 l49 -41 53 33 c29 19 60 39 69 44 9 6 48 31 87 58 40 26 74 47 76 47 2 0 28 16 58 35 29 20 64 38 78 41 14 4 44 17 67 30 29 17 65 26 118 31 l75 6 46 -49 c25 -27 57 -66 71 -86 29 -43 29 -43 101 -24 58 16 223 39 397 56 219 22 357 77 482 192 40 37 79 68 86 68 26 0 37 -25 37 -85 0 -94 -39 -306 -61 -330 -5 -5 -9 -18 -9 -28 0 -10 -7 -33 -16 -50 -30 -58 -34 -67 -34 -81 0 -12 -39 -89 -119 -232 -16 -28 -41 -63 -55 -79 -14 -15 -26 -32 -26 -37 0 -11 -233 -242 -280 -278 -19 -14 -42 -28 -52 -32 -10 -4 -18 -12 -18 -18 0 -5 -8 -10 -18 -10 -10 0 -26 -6 -37 -14 -36 -25 -100 -30 -130 -10 -24 16 -83 86 -125 149 -15 23 -16 23 -39 4 -13 -10 -29 -19 -36 -19 -7 0 -18 -6 -24 -14 -9 -11 -2 -26 34 -72 137 -178 215 -287 216 -307 4 -50 -2 -77 -26 -105 -25 -29 -25 -39 -5 -87 63 -147 75 -494 25 -709 -13 -54 -21 -105 -18 -112 3 -8 1 -20 -5 -27 -5 -6 -13 -32 -17 -57 -3 -25 -13 -76 -20 -115 -8 -38 -17 -108 -21 -155 -3 -47 -9 -89 -12 -95 -8 -14 -3 -178 9 -255 15 -103 40 -198 55 -211 8 -6 14 -22 14 -34 0 -12 7 -28 15 -35 8 -7 15 -18 15 -25 0 -6 9 -20 20 -30 12 -11 28 -34 37 -52 9 -19 65 -83 126 -143 l110 -109 -11 -63 c-19 -100 -40 -191 -51 -213 -5 -11 -22 -58 -37 -105 -32 -101 -53 -159 -65 -182 -5 -10 -9 -26 -9 -37 0 -10 -6 -24 -14 -30 -8 -7 -17 -24 -21 -39 -3 -15 -29 -72 -56 -128 -27 -55 -49 -108 -49 -116 0 -9 -7 -21 -16 -28 -14 -13 -54 -86 -54 -101 0 -4 -25 -47 -55 -96 -30 -50 -55 -94 -55 -100 0 -6 -16 -23 -35 -37 l-35 -27 -55 25 c-29 14 -60 26 -67 26 -7 0 -26 7 -43 16 -16 9 -46 20 -65 25 -19 5 -75 20 -125 33 -49 14 -113 25 -142 25 -28 1 -54 5 -57 9 -7 12 -330 6 -421 -8 -44 -6 -127 -25 -185 -40 -198 -53 -228 -64 -285 -99 -232 -143 -320 -153 -483 -54 -31 18 -60 33 -64 33 -5 0 -25 11 -46 24 -20 12 -48 26 -62 30 -14 4 -41 15 -60 23 -19 9 -48 20 -65 24 -16 5 -57 15 -90 24 -127 33 -248 46 -420 44 -93 -1 -177 -5 -186 -10 -9 -4 -47 -10 -85 -14 -38 -3 -98 -12 -134 -21 -36 -8 -87 -19 -114 -24 -26 -5 -58 -15 -70 -23 -11 -7 -54 -24 -94 -37 -72 -23 -73 -23 -92 -4 -10 10 -36 53 -58 94 -46 88 -104 196 -120 225 -16 27 -102 213 -102 220 0 2 -16 29 -35 59 -19 30 -35 61 -35 68 0 7 -7 22 -15 32 -8 11 -15 27 -15 37 0 9 -14 50 -31 90 -28 67 -39 103 -83 274 -7 28 -18 60 -24 72 -7 12 -12 42 -12 66 0 44 2 47 95 134 193 178 271 346 306 658 10 85 9 115 -6 195 -9 52 -18 109 -21 125 -11 75 -27 166 -41 240 -8 44 -21 116 -29 160 -8 44 -19 101 -24 126 -11 57 -4 327 11 389 5 25 14 68 19 95 4 28 16 70 24 94 16 42 15 45 -3 65 -23 25 -41 68 -41 99 0 12 46 83 106 162 148 196 164 221 151 234 -6 6 -15 11 -21 11 -5 0 -17 7 -27 16 -22 20 -49 12 -56 -16 -3 -11 -9 -20 -14 -20 -6 0 -13 -8 -16 -17 -4 -9 -14 -24 -22 -33 -9 -8 -28 -30 -43 -48 l-27 -33 -64 11 c-35 7 -76 19 -89 28 -109 72 -168 120 -265 216 -62 61 -113 116 -113 121 0 6 -13 26 -28 45 -16 19 -32 42 -36 50 -4 8 -18 33 -31 55 -75 124 -138 280 -179 445 -43 174 -46 188 -46 244 0 94 36 97 128 13 68 -62 135 -101 235 -136 101 -35 151 -44 372 -66 88 -9 201 -24 250 -35 50 -10 93 -15 96 -12 3 4 32 39 63 79 51 64 62 73 99 78 61 9 124 -7 247 -64 14 -6 39 -20 55 -31 17 -11 37 -23 45 -27 9 -5 40 -24 70 -44 30 -20 96 -61 147 -92 l92 -57 68 50 c37 27 80 58 95 69 14 12 30 21 35 21 5 0 20 11 33 25 13 14 28 25 33 25 6 0 42 20 81 44 39 24 89 53 111 65 22 12 54 30 70 41 17 11 48 29 70 40 22 11 63 34 90 50 69 40 228 119 240 119 6 0 25 -8 43 -17z"/>
 <path d="M3226 5871 c-4 -5 -48 -30 -99 -55 -50 -26 -119 -62 -152 -81 -33 -19 -76 -42 -95 -51 -19 -9 -54 -29 -78 -45 -24 -16 -46 -29 -49 -29 -14 0 -243 -148 -271 -176 -13 -12 -37 -29 -55 -38 -48 -24 -70 -43 -62 -56 8 -13 -14 -72 -25 -65 -4 2 -24 -12 -46 -32 -21 -20 -42 -36 -46 -35 -4 1 -19 -14 -34 -33 -14 -19 -32 -35 -39 -35 -7 0 -20 -11 -29 -25 -9 -14 -22 -25 -30 -25 -13 0 -46 -31 -46 -43 0 -4 8 -7 19 -7 10 0 38 -7 62 -16 60 -21 245 -71 295 -79 35 -5 46 -2 70 18 61 52 337 241 389 267 11 6 34 19 50 30 17 11 44 26 60 35 17 8 48 26 70 39 22 13 69 38 104 55 l64 31 61 -30 c57 -29 92 -48 176 -98 19 -11 53 -30 75 -42 70 -38 206 -130 322 -216 117 -87 147 -98 205 -75 13 5 88 26 168 47 80 21 151 43 158 49 10 9 -12 32 -110 110 -145 116 -168 139 -168 168 0 17 -22 38 -90 85 -50 34 -94 62 -98 62 -4 0 -22 13 -40 29 -17 17 -32 28 -32 26 0 -3 -25 11 -55 30 -30 20 -65 40 -77 45 -13 6 -36 19 -53 30 -16 11 -40 25 -52 31 -13 7 -23 16 -23 20 0 4 -22 15 -48 23 -27 9 -72 32 -101 50 -29 19 -66 40 -82 46 -16 7 -29 17 -29 22 0 5 -4 7 -9 4 -5 -3 -29 5 -53 19 -46 27 -64 30 -72 16z"/>
 <path d="M5999 5784 c-34 -36 -121 -95 -204 -136 -83 -42 -174 -63 -327 -78 -225 -23 -395 -50 -461 -76 -8 -3 -39 28 -80 80 -42 54 -76 88 -92 92 -70 17 -185 -30 -395 -163 -178 -112 -260 -167 -260 -174 0 -3 62 -56 138 -117 75 -60 150 -124 166 -141 l29 -30 -29 -11 c-290 -108 -622 -170 -1013 -190 -209 -11 -637 0 -802 20 -123 15 -393 78 -544 127 l-139 45 30 27 c17 14 94 80 172 145 78 66 142 121 142 122 0 2 -342 221 -410 262 -20 11 -73 35 -118 51 -118 44 -147 38 -211 -43 -83 -103 -73 -99 -182 -76 -52 10 -166 26 -254 35 -236 23 -322 39 -432 80 -64 25 -159 85 -218 141 l-30 28 -3 -51 c-3 -58 37 -251 75 -358 34 -95 123 -268 193 -373 121 -186 361 -386 483 -405 36 -6 39 -4 83 51 25 31 54 74 65 95 23 43 41 46 90 13 19 -13 52 -31 73 -40 47 -19 50 -12 -109 -221 -67 -88 -127 -170 -134 -183 -23 -44 21 -93 179 -199 293 -196 774 -332 1290 -364 239 -14 798 -14 1010 1 169 11 416 46 573 81 177 39 418 130 613 232 123 64 248 168 257 212 5 29 -31 84 -188 286 -47 60 -85 115 -85 121 0 14 130 98 152 98 7 0 38 -36 67 -80 30 -44 65 -87 78 -96 61 -40 176 29 376 225 117 114 172 193 270 386 86 168 157 414 157 542 0 40 -9 41 -41 7z m-1379 -1497 c0 -9 -50 -32 -92 -42 -23 -6 -27 -3 -33 27 -13 66 -29 98 -47 98 -38 0 -115 -25 -147 -48 -31 -23 -33 -28 -28 -66 3 -23 9 -49 12 -57 4 -12 -8 -19 -52 -32 -31 -8 -61 -14 -64 -11 -15 9 -30 110 -20 135 19 51 85 85 249 129 46 12 48 19 28 85 l-12 40 56 16 55 16 48 -141 c26 -77 47 -144 47 -149z m-2506 214 c-4 -20 -10 -45 -14 -56 -8 -22 20 -35 120 -56 61 -12 118 -38 168 -76 26 -20 32 -31 32 -62 0 -49 -28 -69 -107 -77 -55 -6 -87 0 -248 46 -16 4 -57 16 -90 25 -32 9 -61 18 -63 20 -2 2 5 30 16 62 10 32 32 99 47 149 l29 91 58 -15 58 -15 -6 -36z m391 -61 c40 -9 53 -17 63 -39 12 -26 19 -29 100 -40 163 -23 163 -23 183 3 19 24 23 25 138 18 23 -2 22 -3 -15 -49 -21 -27 -43 -52 -49 -58 -6 -5 -27 -30 -47 -55 -20 -25 -57 -67 -82 -94 -42 -44 -49 -48 -79 -42 -17 4 -50 9 -72 12 -52 6 -72 30 -137 164 -28 58 -59 121 -69 141 -24 46 -24 62 -1 56 9 -3 40 -10 67 -17z m1504 -42 c25 -90 49 -263 37 -270 -26 -17 -115 -20 -143 -5 -109 57 -170 91 -184 103 -8 8 -19 14 -23 14 -4 0 -21 10 -38 21 -28 21 -30 21 -24 3 3 -10 8 -58 11 -105 l6 -86 -38 -7 c-21 -3 -50 -6 -65 -6 -26 0 -28 3 -28 38 0 20 -5 91 -10 157 -5 65 -8 121 -6 123 2 1 30 5 62 7 50 3 63 0 91 -21 17 -13 34 -24 37 -24 3 0 24 -12 48 -27 24 -16 52 -34 63 -41 19 -11 103 -52 109 -52 2 0 -3 37 -11 81 -18 106 -16 122 22 130 66 14 72 12 84 -33z m-754 -30 c2 -7 7 -66 10 -130 l7 -118 85 0 84 0 -3 -32 -3 -33 -140 -3 c-77 -2 -186 -1 -243 3 l-103 7 3 27 c3 26 3 26 93 26 l90 0 2 119 c1 66 4 125 7 133 7 17 105 18 111 1z"/>
 <path d="M2075 4350 c-4 -6 -10 -24 -15 -39 l-8 -29 88 -22 c105 -26 144 -24 148 7 4 29 -33 53 -117 75 -78 21 -88 21 -96 8z"/>
 <path d="M2631 4257 c10 -28 27 -60 37 -70 18 -18 20 -17 65 33 26 29 47 56 47 60 0 4 -26 10 -57 14 -32 4 -70 8 -84 10 l-27 4 19 -51z"/>
 <path d="M3185 5364 c-22 -13 -62 -36 -90 -50 -27 -14 -67 -35 -87 -46 l-37 -21 30 -43 c16 -24 34 -44 39 -44 6 0 10 -5 10 -12 0 -6 -13 1 -29 16 -18 17 -31 24 -35 17 -4 -6 -14 -11 -22 -11 -9 0 -36 -15 -62 -32 -26 -18 -63 -41 -82 -51 -19 -11 -56 -37 -82 -58 -26 -21 -50 -39 -53 -39 -4 0 -30 -17 -58 -37 l-50 -37 29 -8 c16 -5 169 -15 339 -23 342 -16 614 -9 845 23 l125 17 -70 47 c-39 26 -95 65 -126 87 -96 68 -219 136 -219 121 0 -5 -10 -15 -22 -21 l-23 -12 21 24 c12 13 29 36 38 51 l18 27 -41 20 c-23 12 -59 30 -80 41 -22 11 -43 25 -46 30 -4 6 -15 8 -26 5 -11 -4 -19 -2 -19 5 0 11 -60 40 -82 40 -7 -1 -31 -12 -53 -26z m259 -228 c-3 -8 -15 -16 -27 -19 -21 -6 -21 -6 2 14 28 23 32 24 25 5z m-205 -51 c42 0 90 3 106 8 26 6 24 4 -9 -13 -48 -24 -121 -26 -164 -4 -27 13 -57 20 -96 23 -5 1 -6 4 -3 8 4 3 2 12 -5 20 -6 7 13 1 42 -14 44 -22 66 -27 129 -28z"/>
 <path d="M1335 4135 c-9 -22 -18 -58 -21 -80 -2 -22 -7 -56 -11 -75 -11 -56 -14 -91 -13 -162 1 -37 -3 -69 -10 -73 -5 -3 -7 -12 -3 -18 4 -7 8 -50 9 -97 1 -71 7 -125 14 -125 2 0 8 -37 15 -95 2 -25 16 -101 30 -170 14 -69 27 -141 30 -160 2 -19 6 -59 10 -89 3 -30 9 -59 12 -64 11 -19 15 -125 8 -257 -5 -98 -9 -123 -35 -195 -12 -33 -24 -69 -27 -80 -9 -35 -47 -108 -81 -157 -18 -26 -32 -49 -32 -52 0 -9 -24 -34 -133 -142 -61 -61 -96 -103 -93 -113 39 -146 97 -334 117 -378 10 -23 19 -47 19 -53 0 -7 7 -28 16 -48 9 -21 20 -46 24 -57 69 -179 300 -631 332 -651 5 -4 24 1 41 9 92 44 179 69 312 93 17 3 37 7 45 10 8 3 40 8 70 10 30 3 62 8 70 11 8 3 38 6 67 7 28 0 55 4 59 8 10 11 162 10 168 -1 3 -5 34 -7 68 -6 34 1 76 -2 93 -7 16 -5 45 -11 64 -14 19 -2 52 -9 75 -15 23 -6 52 -13 66 -16 14 -2 32 -7 40 -10 8 -3 20 -7 27 -9 35 -7 95 -29 149 -55 33 -16 65 -29 71 -29 6 0 28 -12 49 -26 91 -62 192 -103 216 -88 7 5 24 9 38 9 27 2 144 61 186 94 15 12 33 21 40 21 8 0 37 11 64 24 67 32 198 74 257 81 12 2 37 8 55 13 18 6 40 11 48 11 8 0 35 4 60 7 25 4 68 6 97 6 29 -1 55 3 58 8 7 11 178 14 188 4 4 -4 23 -8 44 -9 37 -2 75 -7 158 -20 22 -4 51 -8 65 -10 14 -2 50 -11 80 -20 30 -9 73 -21 95 -27 39 -9 51 -13 105 -35 14 -6 38 -16 53 -22 30 -12 64 -15 54 -5 -4 4 2 19 13 34 11 15 24 39 30 54 5 14 13 26 18 26 5 0 14 17 20 38 6 20 26 60 44 88 29 44 80 147 124 249 7 17 27 59 43 95 16 36 33 79 37 95 4 17 10 35 14 40 5 6 16 36 25 67 9 32 21 60 26 63 5 4 9 15 9 26 0 11 15 68 34 127 19 59 38 127 44 152 l11 45 -60 57 c-32 32 -59 62 -59 68 0 5 -3 10 -7 10 -12 0 -59 50 -101 105 -45 61 -52 73 -92 155 -48 98 -48 100 -65 180 -17 81 -27 378 -13 386 5 3 8 24 7 47 -1 23 1 56 4 72 4 17 8 44 11 62 2 18 7 36 10 41 3 5 8 29 11 53 3 24 7 56 10 71 3 16 7 38 10 50 2 13 6 37 9 53 3 17 8 46 11 65 4 19 8 44 9 55 1 11 6 28 10 38 5 9 6 26 3 37 -3 11 -2 22 3 25 7 4 4 284 -5 350 -12 97 -41 214 -57 230 -3 3 -24 -12 -47 -32 -36 -34 -188 -118 -279 -155 -28 -11 -32 -17 -26 -38 27 -105 23 -259 -10 -445 -3 -16 -8 -47 -11 -69 -3 -21 -7 -41 -10 -45 -2 -4 -7 -34 -10 -67 -4 -32 -9 -63 -12 -68 -4 -5 -7 -19 -9 -30 -7 -49 -12 -83 -19 -116 -13 -70 -30 -257 -30 -335 0 -62 11 -201 20 -245 2 -14 9 -47 14 -75 11 -59 46 -170 65 -205 7 -14 16 -36 19 -50 4 -14 23 -52 44 -85 21 -33 43 -68 48 -77 36 -58 88 -128 95 -128 5 0 18 -15 30 -34 l21 -35 -32 -103 c-18 -57 -35 -110 -39 -118 -9 -17 -28 -64 -42 -100 -22 -55 -37 -88 -72 -160 -20 -41 -36 -80 -36 -87 0 -19 -15 -23 -51 -13 -19 5 -52 12 -74 15 -22 4 -51 8 -65 11 -100 18 -211 26 -385 25 -169 0 -244 -4 -320 -16 -22 -4 -50 -6 -62 -6 -12 0 -25 -4 -28 -9 -4 -6 -10 -8 -15 -5 -8 5 -113 -17 -150 -32 -8 -3 -22 -7 -30 -8 -23 -3 -89 -26 -118 -41 -15 -8 -33 -14 -40 -14 -7 0 -20 -4 -30 -9 -80 -41 -190 -91 -201 -91 -7 0 -41 13 -75 28 -33 16 -86 39 -116 52 -30 12 -68 28 -85 36 -28 13 -131 43 -220 65 -106 26 -151 33 -275 46 -79 8 -395 7 -465 -1 -112 -14 -146 -19 -198 -31 -35 -8 -122 -23 -122 -21 0 0 -20 42 -45 91 -24 50 -49 104 -56 120 -7 17 -22 51 -33 77 -12 26 -21 54 -21 62 0 8 -4 17 -9 20 -4 3 -14 27 -21 53 -7 27 -17 52 -21 57 -5 6 -9 19 -9 30 0 12 -6 32 -13 46 -16 29 -11 36 83 155 31 39 60 77 64 85 7 15 13 25 54 90 12 19 22 41 22 47 0 7 11 36 24 65 32 69 64 167 71 215 4 21 8 49 11 63 24 135 20 376 -11 575 -3 22 -8 56 -11 75 -2 19 -9 49 -14 65 -5 17 -12 55 -15 85 -4 30 -8 57 -11 61 -2 4 -6 24 -9 45 -3 22 -8 53 -11 69 -27 149 -35 290 -21 380 4 28 8 59 10 69 1 15 -19 30 -98 70 -106 54 -152 83 -197 124 -16 14 -28 22 -28 17 0 -5 -6 0 -14 10 -13 18 -15 17 -31 -20z m302 -1482 c-4 -3 -10 -3 -14 0 -3 4 0 7 7 7 7 0 10 -3 7 -7z"/>
 <path d="M1771 3912 c-6 -11 -10 -27 -10 -38 -6 -214 2 -361 19 -394 6 -10 7 -26 4 -34 -4 -9 -1 -23 6 -31 6 -8 9 -19 5 -25 -3 -5 -3 -16 2 -22 4 -7 9 -22 10 -33 1 -11 4 -36 8 -55 4 -19 7 -42 7 -50 0 -8 5 -20 10 -27 5 -7 7 -16 5 -20 -3 -5 -1 -31 5 -58 5 -28 12 -66 14 -85 2 -19 6 -51 9 -70 3 -19 6 -62 8 -96 2 -34 7 -66 11 -73 5 -8 0 -14 -13 -18 -22 -6 -27 -18 -12 -27 10 -6 9 -13 -14 -163 -10 -62 -15 -122 -12 -133 3 -11 1 -22 -3 -25 -4 -3 -11 -28 -15 -56 -4 -28 -13 -53 -21 -56 -11 -4 -11 -7 1 -19 7 -8 22 -14 32 -15 16 0 15 -2 -4 -16 -13 -8 -23 -20 -23 -25 0 -5 -11 -33 -24 -61 -13 -29 -31 -68 -40 -87 -9 -19 -25 -48 -36 -65 -11 -16 -23 -37 -27 -45 -13 -28 -81 -125 -112 -158 -17 -18 -31 -35 -31 -38 0 -8 40 -127 50 -149 5 -11 32 -76 60 -145 87 -211 91 -215 184 -191 23 6 64 14 91 17 28 3 64 8 80 10 17 2 60 5 98 7 37 2 69 6 71 8 2 2 8 18 13 34 l10 30 1 -39 c0 -21 5 -43 11 -49 8 -8 11 -4 11 16 0 23 3 26 18 17 9 -6 101 -19 204 -29 109 -11 194 -24 203 -31 13 -10 17 -7 30 21 8 19 14 26 15 17 0 -24 21 -33 157 -67 67 -16 138 -37 160 -46 21 -9 49 -22 63 -27 14 -6 37 -17 52 -24 14 -8 33 -14 41 -14 8 0 20 -6 26 -14 7 -8 27 -17 45 -20 35 -7 56 0 171 55 33 16 67 29 76 29 8 0 19 4 25 9 9 10 163 55 244 72 72 15 80 19 80 42 0 18 3 16 17 -11 14 -29 18 -31 32 -19 11 10 68 18 181 26 91 6 182 14 203 18 32 5 37 3 37 -13 1 -15 5 -12 16 10 13 22 18 26 25 15 5 -9 29 -14 66 -15 54 -2 122 -9 183 -19 14 -2 47 -7 75 -11 27 -3 58 -10 67 -15 27 -14 50 3 77 58 47 97 51 105 51 114 0 5 11 32 25 61 14 28 25 57 25 62 0 6 6 23 14 38 8 15 21 52 30 82 9 30 19 62 22 69 5 13 -11 36 -57 87 -21 23 -79 107 -79 115 0 3 -11 21 -25 39 -14 18 -25 36 -25 39 0 4 -14 37 -31 74 -17 38 -36 79 -42 93 -6 14 -20 33 -32 42 l-20 18 21 0 c25 0 52 26 33 32 -12 4 -17 28 -49 238 -11 74 -23 141 -25 148 -2 6 0 12 4 12 5 0 7 9 4 20 -3 11 0 20 6 20 25 0 9 18 -21 24 -26 5 -30 9 -18 16 9 6 15 26 16 52 1 42 11 139 19 188 2 14 11 69 19 123 8 53 17 101 20 105 3 5 8 35 11 68 4 32 9 62 11 66 3 4 7 20 9 35 2 16 7 44 9 63 15 95 18 134 18 245 1 157 -9 203 -38 176 -15 -15 -246 -89 -341 -110 -253 -56 -569 -90 -851 -92 -75 -1 -163 -4 -195 -8 l-59 -6 56 -29 c31 -16 63 -38 72 -48 10 -10 21 -18 25 -18 5 0 32 -14 61 -31 42 -25 65 -32 117 -33 36 -1 66 -7 68 -13 5 -13 -48 -53 -69 -53 -7 0 -22 -6 -33 -13 -20 -14 -114 -15 -135 -2 -23 14 -7 -14 26 -46 20 -18 41 -45 47 -59 13 -32 17 -141 4 -157 -5 -7 -6 -17 -3 -22 4 -5 2 -12 -2 -15 -15 -9 -20 -121 -7 -168 l7 -28 -47 18 c-41 15 -50 24 -73 72 -15 30 -25 61 -24 68 6 26 -14 10 -42 -36 -27 -43 -91 -112 -104 -112 -3 0 -14 -7 -24 -17 -10 -9 -21 -13 -25 -10 -3 4 17 29 45 56 29 27 52 53 52 58 0 4 14 26 30 47 17 22 30 47 30 56 0 9 5 21 10 26 15 15 23 68 25 174 1 74 -2 104 -17 137 -10 23 -18 48 -18 55 0 43 -107 158 -147 158 -22 0 -23 -3 -18 -34 4 -21 0 -54 -10 -87 -18 -57 -69 -128 -82 -115 -4 4 0 12 11 18 28 16 44 67 40 128 -7 80 -20 90 -121 90 -387 0 -899 82 -1125 181 -79 34 -75 34 -87 11z m1479 -323 c0 -5 11 -26 23 -47 30 -47 38 -79 40 -167 2 -81 -28 -187 -68 -240 -14 -17 -25 -35 -25 -38 0 -10 -97 -107 -107 -107 -6 0 -16 -7 -23 -16 -8 -8 -27 -21 -44 -28 -34 -15 -106 -76 -106 -90 0 -5 -6 -14 -13 -20 -12 -10 -27 -42 -53 -111 -16 -44 -20 -120 -10 -185 12 -76 19 -100 27 -106 5 -3 9 -13 9 -23 0 -10 13 -35 30 -57 16 -21 30 -42 30 -46 0 -11 121 -128 132 -128 5 0 21 -8 35 -17 15 -10 50 -24 77 -32 62 -17 192 -19 208 -3 7 7 21 12 32 12 67 0 236 178 236 249 0 11 4 22 9 26 11 6 11 3 12 136 1 98 -10 139 -45 168 -9 8 -16 18 -16 23 0 13 -54 57 -98 80 -42 22 -155 30 -187 13 -69 -35 -134 -133 -119 -178 5 -12 8 -26 9 -32 1 -5 6 -23 13 -38 7 -16 12 -34 12 -41 0 -7 3 -16 6 -19 4 -3 19 -43 34 -87 47 -140 31 -274 -34 -292 -17 -4 -31 -6 -33 -5 -1 2 6 28 17 58 29 79 24 174 -21 349 -16 64 -18 180 -4 215 16 40 92 114 124 121 14 3 38 10 53 16 14 5 37 6 50 2 13 -4 30 -8 38 -9 17 -2 62 -19 100 -37 28 -14 123 -97 129 -113 2 -5 10 -18 18 -27 17 -19 53 -145 47 -162 -2 -6 -6 -33 -8 -61 -11 -104 -14 -115 -55 -205 -24 -54 -50 -84 -130 -148 -30 -23 -60 -42 -67 -42 -8 0 -22 -4 -32 -9 -66 -33 -231 -37 -327 -8 -166 50 -335 190 -396 327 -6 14 -15 33 -20 42 -16 31 -30 102 -36 174 -5 73 14 179 45 239 23 47 79 112 110 128 70 36 199 110 213 123 8 8 20 14 26 14 11 0 51 41 67 69 6 11 22 39 36 63 29 49 55 166 45 198 -4 11 -9 37 -11 58 -3 20 -11 47 -19 59 -20 30 -20 50 0 33 8 -7 15 -16 15 -21z m-33 -105 c2 -26 -1 -71 -6 -99 -19 -102 -144 -243 -235 -265 -22 -6 -48 -14 -56 -19 -25 -14 -121 -2 -154 18 -43 27 -68 74 -70 133 -1 45 2 52 37 84 21 19 43 32 49 28 7 -4 -3 -13 -23 -23 -47 -22 -66 -64 -49 -110 16 -46 26 -59 71 -86 35 -23 87 -27 171 -12 48 8 168 99 189 142 5 11 13 27 17 35 28 49 34 70 39 146 7 92 13 101 20 28z m-91 -13 c-27 -41 -88 -81 -126 -81 -12 0 -19 -4 -16 -9 11 -17 110 -1 134 21 21 21 22 21 22 2 0 -30 -57 -120 -95 -151 -32 -26 -47 -49 -26 -41 21 8 91 72 91 83 0 6 9 20 20 30 30 27 24 7 -12 -40 -41 -53 -110 -99 -173 -115 -27 -6 -55 -14 -62 -16 -7 -2 3 19 22 45 19 27 35 51 35 54 0 4 20 27 45 53 50 51 54 59 25 51 -22 -6 -81 29 -88 52 -3 10 4 12 34 9 25 -3 54 2 79 13 43 19 104 72 106 92 0 9 2 9 5 0 3 -6 -6 -30 -20 -52z m-698 -95 c-8 -64 23 -117 92 -160 73 -45 131 -94 161 -133 13 -18 28 -31 34 -29 8 2 35 -36 35 -51 0 -6 -137 4 -175 13 -16 4 -52 21 -79 37 -41 25 -54 42 -78 96 -27 57 -29 72 -24 126 5 45 4 56 -4 42 -18 -28 -18 -147 0 -187 30 -70 108 -129 210 -159 25 -7 55 -17 68 -22 13 -5 34 -9 47 -9 14 0 25 -4 25 -9 0 -18 -76 -74 -116 -86 -71 -21 -182 25 -199 82 -5 19 -1 23 37 30 l43 9 -35 19 c-96 50 -128 101 -124 195 3 69 60 240 81 240 3 0 3 -20 1 -44z m399 -23 c-4 -3 -10 -3 -14 0 -3 4 0 7 7 7 7 0 10 -3 7 -7z m40 -60 c-4 -3 -7 0 -7 7 0 7 3 10 7 7 3 -4 3 -10 0 -14z m-169 -142 c6 -17 27 -40 49 -54 37 -23 49 -27 96 -28 12 0 33 -3 47 -6 23 -4 22 -6 -15 -19 -22 -7 -50 -14 -63 -14 -34 0 -82 28 -83 48 0 14 -2 14 -8 -2 -9 -24 -14 -16 -34 52 -17 54 -7 74 11 23z m1121 -234 c1 -32 32 -97 56 -117 9 -7 23 -27 31 -43 9 -16 19 -26 22 -22 7 7 8 12 11 39 2 21 50 49 95 54 l39 4 -21 -34 c-14 -22 -19 -44 -16 -63 3 -17 5 -38 5 -47 0 -10 4 -20 10 -23 5 -4 9 -19 9 -34 0 -15 3 -31 8 -35 4 -4 7 -17 7 -29 0 -19 6 -22 48 -23 38 -1 55 4 78 23 16 14 29 31 29 39 0 9 4 13 8 10 4 -2 7 -37 6 -76 -2 -59 -7 -78 -29 -109 -32 -47 -117 -92 -160 -86 -16 2 -30 4 -30 5 0 7 -117 5 -121 -2 -3 -4 -9 -8 -15 -8 -5 0 3 22 17 50 14 27 28 64 30 82 2 18 6 49 9 68 3 19 8 58 11 85 2 28 18 77 35 109 16 32 28 60 26 63 -8 8 -55 -38 -65 -64 -5 -15 -14 -37 -18 -48 -4 -11 -9 -27 -10 -35 -23 -155 -24 -159 -58 -230 -9 -19 -28 -51 -42 -70 -29 -41 -52 -54 -34 -20 7 13 20 55 29 94 29 126 11 252 -47 332 -37 51 -36 116 5 180 30 47 41 42 42 -19z m-557 -60 c-29 -29 -52 -60 -52 -69 0 -9 -4 -19 -9 -22 -29 -19 -13 -176 31 -297 28 -78 29 -190 3 -239 l-19 -35 -6 40 c-4 22 -21 68 -38 102 -18 34 -32 71 -32 82 0 11 -4 23 -10 26 -13 8 -13 72 1 80 6 4 8 13 5 20 -2 7 0 17 6 23 11 11 2 35 -11 28 -4 -3 -24 -1 -44 5 -45 12 -87 61 -87 100 0 27 2 29 31 24 32 -6 44 4 128 105 20 24 40 39 48 36 8 -3 11 -1 8 4 -7 11 49 39 80 40 15 0 8 -12 -33 -53z m-627 -69 c-4 -18 -14 -42 -21 -53 -8 -11 -14 -25 -14 -33 0 -17 -61 -97 -96 -124 -25 -20 -25 -22 -8 -29 12 -4 1 -7 -28 -6 -42 0 -46 2 -37 18 5 10 18 23 29 29 11 6 20 19 20 28 0 10 6 27 14 38 8 11 19 38 25 61 14 51 63 103 98 103 23 0 24 -3 18 -32z m795 0 c-25 -25 -31 -38 -28 -64 l4 -33 -34 15 c-44 18 -52 18 -52 -2 0 -9 9 -18 20 -21 11 -3 20 -10 20 -16 0 -6 6 -18 13 -26 8 -9 24 -43 37 -76 25 -66 46 -95 67 -95 7 0 13 -4 13 -9 0 -11 -62 5 -100 24 -61 33 -118 110 -121 165 -6 93 67 165 169 169 23 1 22 0 -8 -31z m-1513 -5 c-4 -3 -10 -3 -14 0 -3 4 0 7 7 7 7 0 10 -3 7 -7z m64 -30 c13 -16 12 -17 -3 -4 -10 7 -18 15 -18 17 0 8 8 3 21 -13z m714 -30 c-17 -50 -56 -108 -87 -132 -19 -14 -72 -41 -81 -41 -1 0 32 35 73 78 42 43 82 92 89 110 19 46 23 35 6 -15z m1830 27 c-3 -5 -11 -10 -16 -10 -6 0 -7 5 -4 10 3 6 11 10 16 10 6 0 7 -4 4 -10z m-73 -82 c-7 -7 -12 -8 -12 -2 0 6 3 14 7 17 3 4 9 5 12 2 2 -3 -1 -11 -7 -17z m-2363 -173 c-5 -13 -8 0 -7 40 0 56 1 58 8 20 4 -22 4 -49 -1 -60z m2328 78 c-4 -3 -7 0 -7 7 0 7 3 10 7 7 3 -4 3 -10 0 -14z m0 -80 c-3 -10 -5 -4 -5 12 0 17 2 24 5 18 2 -7 2 -21 0 -30z m-1720 -10 c-4 -3 -7 0 -7 7 0 7 3 10 7 7 3 -4 3 -10 0 -14z m-620 -30 c-4 -3 -7 0 -7 7 0 7 3 10 7 7 3 -4 3 -10 0 -14z m643 -22 c0 -8 20 -47 45 -89 25 -41 45 -77 45 -80 0 -18 181 -172 202 -172 9 0 21 -7 28 -15 7 -8 18 -15 25 -15 7 0 26 -7 41 -15 l29 -15 -28 0 c-24 0 -52 12 -149 67 -85 47 -171 143 -218 243 -41 85 -51 116 -42 124 7 8 22 -14 22 -33z m-113 -28 c-4 -86 17 -152 89 -275 21 -35 83 -85 141 -113 75 -37 187 -42 265 -12 29 11 77 21 106 22 l52 2 -22 -21 c-70 -65 -139 -90 -248 -89 -87 0 -161 21 -230 64 -8 5 -25 13 -37 18 -88 39 -174 220 -158 336 8 60 27 125 37 125 4 0 6 -26 5 -57z m-545 15 c-7 -7 -12 -8 -12 -2 0 6 3 14 7 17 3 4 9 5 12 2 2 -3 -1 -11 -7 -17z m-22 -38 c-6 -11 -16 -20 -22 -20 -6 0 -3 9 7 20 10 11 20 20 22 20 2 0 -1 -9 -7 -20z m-56 -55 c-10 -8 -23 -14 -29 -14 -5 -1 1 8 15 19 14 10 27 17 29 14 3 -2 -4 -11 -15 -19z m2561 -13 c-3 -3 -16 5 -28 17 l-22 23 28 -17 c15 -10 25 -20 22 -23z m-2610 -12 c-3 -5 -11 -10 -16 -10 -6 0 -7 5 -4 10 3 6 11 10 16 10 6 0 7 -4 4 -10z m2150 -17 c48 -25 66 -45 90 -97 78 -166 -79 -331 -222 -233 -18 12 -34 31 -37 42 -9 33 -7 75 4 75 6 0 10 -11 10 -24 0 -35 30 -66 68 -71 123 -15 178 135 85 233 -18 19 -95 52 -122 52 -33 0 -151 -58 -158 -78 -11 -32 -97 -102 -162 -133 -87 -41 -101 -46 -136 -55 -44 -11 -245 -13 -245 -3 0 10 6 11 90 15 62 4 82 7 125 18 44 12 155 67 155 77 0 5 5 9 11 9 14 0 79 65 79 78 0 17 56 61 114 90 51 26 67 30 135 28 54 -2 88 -8 116 -23z m505 17 c13 -8 13 -10 -2 -10 -9 0 -20 5 -23 10 -8 13 5 13 25 0z m-2703 -16 c-3 -3 -12 -4 -19 -1 -8 3 -5 6 6 6 11 1 17 -2 13 -5z m2756 -1 c-7 -2 -19 -2 -25 0 -7 3 -2 5 12 5 14 0 19 -2 13 -5z m-2266 -720 c-4 -3 -10 -3 -14 0 -3 4 0 7 7 7 7 0 10 -3 7 -7z m133 -3 c13 -9 13 -10 0 -10 -8 0 -22 5 -30 10 -13 9 -13 10 0 10 8 0 22 -5 30 -10z m1527 3 c-4 -3 -10 -3 -14 0 -3 4 0 7 7 7 7 0 10 -3 7 -7z m100 1 c-3 -3 -12 -4 -19 -1 -8 3 -5 6 6 6 11 1 17 -2 13 -5z m-1790 -11 c-4 -3 -10 -3 -14 0 -3 4 0 7 7 7 7 0 10 -3 7 -7z m1652 3 c-2 -2 -20 -11 -39 -20 l-35 -17 24 21 c13 11 30 20 39 20 8 0 13 -2 11 -4z m186 -6 c8 -13 -5 -13 -25 0 -13 8 -13 10 2 10 9 0 20 -4 23 -10z m-1620 -20 c3 -5 4 -10 1 -10 -3 0 -8 5 -11 10 -3 6 -4 10 -1 10 3 0 8 -4 11 -10z m1650 0 c3 -5 4 -10 1 -10 -3 0 -8 5 -11 10 -3 6 -4 10 -1 10 3 0 8 -4 11 -10z m-1972 -45 c-39 -48 -43 -51 -43 -36 0 11 64 81 74 81 4 0 -10 -20 -31 -45z m1667 15 c-6 -11 -16 -20 -22 -20 -6 0 -3 9 7 20 10 11 20 20 22 20 2 0 -1 -9 -7 -20z m-1294 -17 c-7 -7 -26 7 -26 19 0 6 6 6 15 -2 9 -7 13 -15 11 -17z m1674 -19 c31 -49 19 -53 -14 -4 -14 22 -22 40 -17 40 5 0 19 -16 31 -36z m-1640 -25 c0 -6 -4 -7 -10 -4 -5 3 -10 11 -10 16 0 6 5 7 10 4 6 -3 10 -11 10 -16z m1212 -1 c-7 -7 -12 -8 -12 -2 0 14 12 26 19 19 2 -3 -1 -11 -7 -17z m455 -50 c-3 -8 -6 -5 -6 6 -1 11 2 17 5 13 3 -3 4 -12 1 -19z m-1650 -5 c-4 -3 -7 0 -7 7 0 7 3 10 7 7 3 -4 3 -10 0 -14z m1170 0 c-4 -3 -7 0 -7 7 0 7 3 10 7 7 3 -4 3 -10 0 -14z"/>
 <path d="M2963 3206 c-24 -11 -33 -32 -10 -22 6 3 20 9 30 12 9 4 17 10 17 15 0 11 -8 10 -37 -5z"/>
 </g>
<g id="layer103" fill="#d2d2d2" stroke="none">
 <path d="M0 3255 l0 -3255 3250 0 3250 0 0 3255 0 3255 -3250 0 -3250 0 0 -3255z m3288 2667 c17 -9 80 -42 140 -73 59 -31 152 -80 206 -108 55 -28 106 -57 114 -63 8 -7 22 -17 32 -23 76 -43 184 -110 231 -144 31 -23 60 -41 64 -41 3 0 28 -19 55 -41 l49 -41 88 58 c299 196 413 255 513 262 85 6 98 -2 174 -97 l56 -69 50 13 c55 15 220 38 394 55 150 15 239 37 321 78 91 45 149 85 206 139 34 32 53 44 70 41 22 -3 24 -8 27 -68 7 -150 -57 -393 -155 -585 -100 -197 -152 -271 -280 -396 -182 -178 -263 -235 -353 -246 -43 -5 -54 -2 -83 20 -19 14 -53 55 -77 92 -23 36 -46 64 -49 63 -3 -2 -25 -14 -47 -28 l-42 -24 107 -141 c159 -207 164 -216 156 -265 -4 -22 -18 -54 -31 -69 -24 -28 -24 -38 -4 -86 63 -147 75 -494 25 -709 -13 -54 -21 -105 -18 -112 3 -8 1 -20 -5 -27 -5 -6 -13 -32 -17 -57 -3 -25 -13 -76 -20 -115 -8 -38 -17 -108 -21 -155 -3 -47 -9 -89 -12 -95 -8 -14 -3 -178 9 -255 15 -103 40 -198 55 -211 8 -6 14 -22 14 -34 0 -12 7 -28 15 -35 8 -7 15 -18 15 -25 0 -6 9 -20 20 -30 12 -11 28 -34 37 -52 9 -19 65 -83 126 -143 l110 -109 -11 -63 c-19 -100 -40 -191 -51 -213 -5 -11 -22 -58 -37 -105 -32 -101 -53 -159 -65 -182 -5 -10 -9 -26 -9 -37 0 -10 -6 -24 -14 -30 -8 -7 -17 -24 -21 -39 -3 -15 -29 -72 -56 -128 -27 -55 -49 -108 -49 -116 0 -9 -7 -21 -16 -28 -14 -13 -54 -86 -54 -101 0 -4 -25 -47 -55 -96 -30 -50 -55 -94 -55 -100 0 -6 -16 -23 -35 -37 l-35 -27 -55 25 c-29 14 -60 26 -67 26 -7 0 -26 7 -43 16 -16 9 -46 20 -65 25 -19 5 -75 20 -125 33 -49 14 -113 25 -142 25 -28 1 -54 5 -57 9 -7 12 -330 6 -421 -8 -44 -6 -127 -25 -185 -40 -198 -53 -228 -64 -285 -99 -232 -143 -320 -153 -483 -54 -31 18 -60 33 -64 33 -5 0 -25 11 -46 24 -20 12 -48 26 -62 30 -14 4 -41 15 -60 23 -19 9 -48 20 -65 24 -16 5 -57 15 -90 24 -127 33 -248 46 -420 44 -93 -1 -177 -5 -186 -10 -9 -4 -47 -10 -85 -14 -38 -3 -98 -12 -134 -21 -36 -8 -87 -19 -114 -24 -26 -5 -58 -15 -70 -23 -11 -7 -54 -24 -94 -37 l-72 -23 -25 23 c-14 13 -25 28 -25 34 0 6 -21 47 -46 91 -52 90 -120 223 -188 365 -24 52 -55 113 -67 135 -40 73 -49 93 -49 108 0 8 -14 48 -31 88 -28 67 -39 103 -83 274 -7 28 -18 60 -24 72 -7 12 -12 42 -12 66 0 44 2 47 95 134 193 178 271 346 306 658 10 85 9 115 -6 195 -9 52 -18 109 -21 125 -11 75 -27 166 -41 240 -8 44 -21 116 -29 160 -8 44 -19 101 -24 126 -11 57 -4 327 11 389 5 25 14 68 19 95 4 28 15 70 24 94 16 42 15 44 -9 72 -29 36 -42 92 -27 125 7 13 67 97 135 186 l124 163 -45 28 c-26 16 -48 24 -50 19 -5 -16 -71 -102 -106 -140 -30 -32 -33 -33 -86 -27 -30 4 -73 16 -95 27 -129 66 -331 256 -425 399 -132 200 -207 382 -255 610 -29 140 -30 225 -3 242 18 12 35 1 162 -98 122 -95 236 -127 571 -160 83 -8 188 -22 235 -31 l84 -17 36 44 c85 105 91 110 150 115 92 9 209 -41 429 -183 45 -30 112 -72 147 -94 l64 -39 67 50 c38 27 80 58 95 69 14 12 30 21 35 21 5 0 20 11 33 25 13 14 28 25 33 25 6 0 42 20 81 44 39 24 89 53 111 65 22 12 54 30 70 41 17 11 48 29 70 40 22 11 63 34 90 50 69 40 228 119 240 119 6 0 25 -8 43 -17z"/>
 <path d="M3195 5846 c-22 -12 -87 -47 -145 -76 -283 -144 -680 -398 -680 -434 0 -25 -35 -86 -49 -86 -6 0 -21 -10 -34 -22 -13 -13 -45 -41 -72 -63 -82 -68 -125 -107 -125 -114 0 -11 265 -90 352 -105 35 -6 44 -2 115 52 149 113 415 282 614 391 l77 42 88 -49 c231 -127 410 -239 585 -368 50 -38 96 -64 110 -64 13 0 74 14 134 30 61 17 139 37 175 46 109 28 109 27 -50 155 -107 86 -143 120 -147 141 -7 34 -129 122 -373 269 -150 90 -508 279 -526 279 -5 -1 -27 -11 -49 -24z m149 -241 c-6 -16 -24 -21 -24 -7 0 11 11 22 21 22 5 0 6 -7 3 -15z m-37 -32 c-4 -3 -10 -3 -14 0 -3 4 0 7 7 7 7 0 10 -3 7 -7z"/>
 <path d="M5999 5784 c-34 -36 -121 -95 -204 -136 -83 -42 -174 -63 -327 -78 -225 -23 -395 -50 -461 -76 -8 -3 -39 28 -80 80 -42 54 -76 88 -92 92 -70 17 -185 -30 -395 -163 -178 -112 -260 -167 -260 -174 0 -3 62 -56 138 -117 75 -60 150 -124 166 -141 l29 -30 -29 -11 c-290 -108 -622 -170 -1013 -190 -209 -11 -637 0 -802 20 -123 15 -393 78 -544 127 l-139 45 30 27 c17 14 94 80 172 145 78 66 142 121 142 122 0 2 -342 221 -410 262 -20 11 -73 35 -118 51 -118 44 -147 38 -211 -43 -83 -103 -73 -99 -182 -76 -52 10 -166 26 -254 35 -236 23 -322 39 -432 80 -64 25 -159 85 -218 141 l-30 28 -3 -51 c-3 -58 37 -251 75 -358 34 -95 123 -268 193 -373 121 -186 361 -386 483 -405 36 -6 39 -4 83 51 25 31 54 74 65 95 23 43 41 46 90 13 19 -13 52 -31 73 -40 47 -19 50 -12 -109 -221 -67 -88 -127 -170 -134 -183 -23 -44 21 -93 179 -199 293 -196 774 -332 1290 -364 239 -14 798 -14 1010 1 169 11 416 46 573 81 177 39 418 130 613 232 123 64 248 168 257 212 5 29 -31 84 -188 286 -47 60 -85 115 -85 121 0 14 130 98 152 98 7 0 38 -36 67 -80 30 -44 65 -87 78 -96 61 -40 176 29 376 225 117 114 172 193 270 386 86 168 157 414 157 542 0 40 -9 41 -41 7z m-1425 -1346 c26 -79 50 -148 52 -153 2 -6 -17 -17 -43 -24 -27 -7 -55 -15 -64 -18 -13 -4 -20 10 -34 62 l-18 67 -36 -7 c-64 -11 -128 -35 -146 -55 -14 -16 -16 -28 -9 -67 4 -26 8 -52 9 -57 0 -10 -24 -18 -86 -30 l-36 -6 -12 58 c-13 67 -6 95 30 128 37 33 81 52 170 74 45 10 84 21 87 24 3 3 -1 29 -9 58 l-14 53 45 16 c25 9 50 17 55 18 6 0 32 -63 59 -141z m-2500 113 c53 -15 51 -10 30 -102 -6 -25 -3 -26 83 -49 173 -46 233 -85 233 -151 0 -29 -6 -40 -27 -55 -42 -27 -125 -29 -223 -4 -91 23 -253 70 -258 75 -2 2 14 61 36 132 22 70 43 138 47 151 4 13 12 22 18 20 7 -2 34 -10 61 -17z m427 -107 c45 -6 52 -11 67 -40 8 -19 23 -34 31 -34 9 0 63 -7 121 -15 l105 -14 26 25 c26 25 69 30 131 15 l28 -6 -84 -100 c-46 -55 -104 -122 -128 -149 l-43 -48 -85 13 -85 14 -82 165 c-84 168 -95 197 -68 186 8 -3 38 -8 66 -12z m1532 -158 c32 -168 34 -161 -49 -172 -63 -7 -98 8 -312 138 l-34 21 7 -100 7 -100 -38 -6 c-22 -4 -51 -7 -66 -7 -26 0 -28 3 -28 38 0 20 -5 91 -10 157 -5 65 -8 121 -6 122 1 2 27 6 57 9 51 5 59 3 117 -33 108 -66 226 -133 234 -133 3 0 -1 37 -9 81 -8 45 -13 91 -11 103 3 22 40 35 88 33 24 -2 26 -8 53 -151z m-778 82 c2 -7 7 -66 10 -130 l7 -118 85 0 84 0 -3 -32 -3 -33 -140 -3 c-77 -2 -186 -1 -243 3 l-103 7 3 27 c3 26 4 26 91 29 82 3 87 4 87 25 2 68 11 214 15 225 3 7 24 12 55 12 32 0 52 -5 55 -12z"/>
 <path d="M2077 4353 c-3 -5 -8 -22 -11 -40 -7 -30 -5 -32 31 -42 128 -36 177 -38 189 -6 10 26 -15 44 -98 70 -84 26 -104 30 -111 18z"/>
 <path d="M2632 4260 c10 -25 27 -56 37 -68 l17 -24 47 52 c26 29 47 55 47 59 0 4 -38 12 -83 17 l-84 9 19 -45z"/>
 <path d="M3159 5340 c-36 -10 -179 -90 -179 -101 0 -22 79 -93 134 -121 52 -27 72 -31 136 -31 64 0 84 4 136 31 53 27 134 99 134 120 0 9 -25 25 -105 68 -51 27 -73 32 -145 36 -47 2 -97 1 -111 -2z"/>
 <path d="M3471 5150 c-69 -59 -129 -83 -222 -88 -82 -4 -90 -3 -150 28 -35 17 -76 44 -92 58 l-27 26 -33 -19 c-65 -37 -214 -135 -285 -187 l-73 -53 33 -7 c108 -23 607 -40 831 -28 221 11 449 38 441 52 -9 14 -366 248 -378 248 -6 -1 -26 -14 -45 -30z"/>
 <path d="M1341 4127 c-30 -93 -43 -176 -48 -318 -7 -180 1 -259 57 -565 53 -288 61 -357 62 -498 0 -282 -84 -477 -301 -696 l-104 -105 23 -89 c39 -156 123 -395 215 -611 75 -177 260 -510 278 -501 400 176 872 203 1273 70 74 -24 209 -86 334 -154 79 -42 166 -42 241 0 145 81 284 142 394 174 386 111 832 77 1212 -90 20 -9 198 316 293 534 82 191 220 598 220 651 0 10 -46 64 -103 122 -190 192 -269 352 -297 598 -13 118 2 274 55 566 59 325 69 420 62 599 -5 142 -33 306 -56 329 -4 4 -27 -8 -52 -26 -41 -32 -203 -118 -276 -148 -17 -7 -30 -16 -28 -19 2 -4 9 -46 15 -95 14 -116 2 -248 -54 -557 -58 -319 -70 -438 -63 -612 12 -310 104 -554 298 -792 l58 -71 -43 -124 c-69 -200 -187 -469 -205 -469 -3 0 -49 9 -101 19 -152 31 -269 42 -448 42 -342 0 -622 -59 -894 -190 l-108 -51 -102 49 c-279 133 -561 194 -899 193 -175 0 -292 -11 -448 -43 -51 -10 -97 -19 -102 -19 -18 0 -126 248 -205 468 l-44 124 59 71 c190 232 285 483 298 787 7 171 -7 308 -63 618 -55 305 -68 441 -54 553 5 46 10 89 10 95 0 7 -38 31 -85 53 -47 22 -125 67 -174 100 l-90 61 -10 -33z m3513 -1491 c-16 -14 -33 -25 -39 -25 -5 0 5 13 23 30 19 17 36 28 39 25 3 -3 -8 -16 -23 -30z m-3185 0 c19 -20 20 -24 7 -29 -10 -4 -16 -1 -16 7 0 8 -10 21 -22 29 -17 12 -19 16 -7 16 8 1 26 -10 38 -23z m716 -1466 c3 -5 -1 -10 -9 -10 -8 0 -22 -10 -30 -22 -9 -12 -18 -19 -21 -16 -7 6 33 58 45 58 5 0 12 -4 15 -10z m1732 -7 c-4 -3 -10 -3 -14 0 -3 4 0 7 7 7 7 0 10 -3 7 -7z m53 -23 c6 -11 7 -20 3 -20 -5 0 -14 9 -21 20 -7 11 -8 20 -2 20 5 0 14 -9 20 -20z"/>
 <path d="M4705 3921 c-16 -15 -247 -89 -342 -110 -254 -56 -572 -90 -851 -92 -75 0 -159 -4 -185 -7 l-49 -7 94 -62 c120 -80 156 -94 240 -96 l68 -1 -22 -23 c-40 -43 -121 -75 -178 -71 -27 1 -50 0 -50 -3 0 -3 11 -16 24 -28 56 -53 70 -141 41 -251 -20 -73 -19 -150 1 -178 21 -30 16 -34 -29 -21 -46 12 -103 68 -112 108 -4 17 -10 33 -14 36 -5 2 -29 -23 -55 -56 -43 -55 -124 -119 -150 -119 -6 0 9 20 34 43 124 119 191 279 176 421 -18 162 -110 313 -194 316 -10 0 -12 -8 -7 -30 4 -16 1 -55 -5 -86 -9 -44 -21 -65 -56 -101 -24 -26 -47 -43 -51 -40 -3 4 6 20 21 36 50 52 63 127 33 189 -11 25 -18 27 -77 29 -503 18 -799 63 -1123 170 -59 20 -110 33 -114 29 -9 -9 -10 -307 -1 -366 4 -25 19 -110 33 -190 38 -204 62 -367 70 -466 l7 -84 43 -19 c105 -46 165 -136 167 -250 1 -57 -4 -76 -28 -121 -40 -73 -108 -125 -182 -140 -31 -6 -62 -13 -67 -14 -6 -2 -16 -21 -24 -42 -44 -124 -131 -275 -222 -385 l-38 -45 39 -110 c68 -194 154 -384 174 -384 8 0 65 9 128 19 63 11 155 23 206 27 76 6 92 10 92 23 0 33 52 121 89 150 38 31 63 43 114 55 45 11 31 -9 -16 -21 -85 -23 -174 -119 -160 -172 4 -16 9 -17 33 -8 37 14 386 -20 405 -40 22 -22 29 38 10 83 -30 73 -120 143 -182 144 -13 0 -23 5 -23 11 0 14 40 5 97 -22 76 -37 143 -133 143 -207 0 -25 19 -37 75 -47 82 -14 271 -77 382 -127 l114 -50 87 40 c111 51 260 103 385 133 l97 23 0 33 c0 95 100 204 208 228 20 4 32 3 32 -4 0 -6 -6 -11 -12 -11 -96 0 -223 -129 -204 -205 5 -21 10 -24 25 -15 10 5 107 17 215 27 161 14 199 15 205 4 15 -24 19 24 5 58 -25 59 -124 130 -181 131 -13 0 -23 5 -23 11 0 16 57 1 114 -30 56 -30 102 -87 118 -147 l11 -41 91 -7 c49 -4 141 -16 204 -27 63 -10 120 -19 128 -19 20 0 117 216 188 419 l26 74 -39 46 c-84 102 -207 315 -227 395 -7 31 -7 30 -86 46 -104 21 -196 119 -212 228 -16 107 59 236 163 281 l49 21 7 77 c7 82 35 265 85 548 30 172 40 355 24 453 -7 43 -12 49 -29 33z m-1452 -333 c135 -200 53 -487 -179 -628 -71 -43 -147 -116 -172 -167 -75 -148 -44 -356 75 -502 226 -275 607 -206 709 128 17 56 18 200 2 238 -6 15 -29 51 -50 79 -95 127 -278 142 -363 29 -49 -64 -45 -97 38 -315 17 -42 21 -78 22 -155 0 -118 -15 -155 -64 -155 -40 0 -43 7 -19 53 33 66 34 145 3 277 -52 218 -44 303 35 374 107 96 273 75 399 -51 75 -75 104 -146 102 -252 -3 -245 -134 -425 -342 -471 -79 -18 -229 -9 -303 18 -194 70 -345 224 -403 409 -22 73 -25 96 -21 182 9 181 82 287 261 374 120 59 204 136 244 224 24 51 28 70 27 153 0 81 -4 104 -27 153 -14 31 -22 57 -18 57 5 0 25 -24 44 -52z m-37 -74 c18 -122 -19 -227 -110 -311 -97 -90 -204 -128 -293 -104 -117 32 -164 188 -74 248 42 28 71 29 105 2 27 -21 38 -79 14 -79 -6 0 -9 3 -5 6 11 11 -15 63 -34 69 -80 26 -138 -72 -89 -152 45 -74 150 -88 261 -36 81 38 130 87 171 171 29 59 33 76 33 149 0 91 10 109 21 37z m-80 -43 c-21 -39 -61 -67 -116 -79 l-45 -10 35 -2 c54 -4 73 0 102 22 27 18 28 18 28 1 0 -28 -55 -117 -91 -147 -17 -15 -30 -29 -27 -31 2 -3 21 9 41 26 42 34 83 99 102 162 13 41 14 41 14 11 1 -42 -51 -141 -97 -183 -46 -42 -124 -79 -187 -88 l-48 -6 20 20 c11 11 40 47 64 79 24 33 54 68 67 78 l24 19 -33 14 c-36 15 -69 41 -69 55 0 4 20 8 45 8 61 0 103 19 145 66 38 42 51 34 26 -15z m-680 -202 c10 -12 54 -44 96 -71 42 -27 93 -67 112 -89 40 -44 42 -43 21 24 -8 26 -10 47 -5 47 5 0 11 -8 14 -18 15 -46 94 -92 160 -92 47 0 62 -14 31 -28 -36 -17 -90 -15 -126 4 l-30 15 16 -30 c8 -17 12 -31 8 -32 -5 0 -35 0 -68 1 -148 3 -251 64 -281 167 -9 30 -14 70 -12 89 2 19 0 34 -4 34 -4 0 -8 -33 -8 -74 0 -62 4 -79 26 -111 14 -21 35 -46 47 -56 37 -32 140 -78 215 -96 40 -9 72 -20 72 -24 0 -19 -54 -69 -87 -80 -42 -14 -109 -14 -145 0 -15 5 -43 26 -63 46 -29 29 -34 40 -24 51 6 8 22 14 35 14 13 0 24 5 24 10 0 6 -7 10 -15 10 -9 0 -36 19 -60 41 -74 68 -81 138 -31 293 38 116 50 125 57 43 4 -45 12 -73 25 -88z m1376 -379 c13 -41 76 -140 89 -140 5 0 12 8 16 18 14 41 45 62 91 62 l44 0 -16 -25 c-9 -13 -16 -39 -16 -56 0 -43 40 -192 54 -202 25 -17 109 16 126 49 21 38 33 13 28 -59 -5 -76 -31 -122 -93 -164 -38 -26 -47 -28 -155 -28 l-116 0 22 55 c12 30 30 105 39 165 10 61 25 131 35 158 19 50 14 59 -14 28 -21 -23 -31 -58 -51 -174 -9 -50 -24 -110 -35 -134 -21 -47 -79 -133 -90 -133 -4 0 2 26 13 58 16 44 21 82 22 167 l0 110 -44 79 c-37 68 -43 85 -38 122 2 24 17 63 33 88 l29 46 8 -28 c4 -15 13 -43 19 -62z m-564 -28 c-86 -92 -97 -183 -44 -362 38 -124 42 -177 21 -246 -24 -79 -31 -84 -38 -27 -3 26 -23 84 -44 128 -40 84 -46 131 -29 209 6 25 5 37 -1 33 -19 -12 -82 14 -107 44 -27 32 -36 92 -13 87 32 -6 69 17 121 76 54 62 121 106 160 106 15 0 9 -10 -26 -48z m-624 -59 c-15 -67 -75 -172 -120 -212 -47 -41 -45 -53 4 -27 47 25 120 109 157 181 33 64 36 67 30 31 -15 -92 -103 -206 -175 -226 -19 -6 -60 -13 -90 -16 l-55 -7 37 39 c21 22 49 69 64 104 37 92 59 125 97 144 47 23 58 21 51 -11z m810 3 c-35 -16 -44 -32 -44 -83 0 -30 -3 -34 -17 -28 -10 4 -31 10 -48 12 l-30 4 27 -23 c15 -13 41 -56 58 -97 36 -87 42 -96 89 -121 34 -18 35 -19 10 -20 -116 -2 -239 113 -239 224 0 46 54 117 100 133 19 7 55 12 80 12 l45 0 -31 -13z m-749 -313 c3 -21 24 -76 47 -122 58 -120 169 -231 292 -292 67 -33 84 -45 67 -47 -53 -8 -185 71 -276 165 -57 59 -116 161 -133 228 -18 71 -22 105 -13 105 5 0 12 -17 16 -37z m-96 -81 c0 -176 84 -323 227 -393 55 -27 74 -32 142 -32 63 0 90 6 138 27 50 22 66 25 104 18 l45 -8 -30 -28 c-46 -43 -99 -66 -183 -78 -65 -10 -89 -9 -151 5 -185 42 -297 148 -331 311 -7 32 -9 79 -5 105 6 47 35 161 41 161 1 0 3 -39 3 -88z m1472 -129 c70 -36 108 -90 116 -165 3 -31 1 -70 -6 -90 -34 -104 -181 -147 -250 -74 -26 27 -43 116 -22 116 6 0 11 -10 11 -22 0 -43 35 -68 95 -68 70 0 121 87 96 163 -23 68 -80 107 -155 107 -67 0 -118 -25 -167 -81 -56 -65 -157 -132 -239 -160 -81 -28 -306 -41 -298 -18 3 10 33 16 99 20 153 11 256 61 351 170 82 95 144 127 249 128 53 1 76 -4 120 -26z"/>
 <path d="M1889 2751 c8 -14 2 -78 -19 -227 -16 -115 -30 -215 -30 -221 0 -20 40 -15 95 11 165 78 195 294 57 419 -32 28 -51 37 -77 37 -32 0 -35 -2 -26 -19z"/>
 <path d="M4510 2733 c-139 -119 -110 -343 55 -419 78 -37 120 -29 97 19 -18 39 -62 398 -51 418 9 17 6 19 -24 19 -24 0 -45 -10 -77 -37z"/>
 </g>
<g id="layer104" fill="#e3e2e0" stroke="none">
 <path d="M0 3255 l0 -3255 3250 0 3250 0 0 3255 0 3255 -3250 0 -3250 0 0 -3255z m3298 2667 c17 -9 80 -42 140 -73 59 -31 152 -80 206 -108 55 -28 106 -57 114 -63 8 -7 22 -17 32 -23 64 -36 181 -108 214 -132 22 -15 54 -37 72 -48 17 -11 50 -35 72 -53 38 -30 41 -31 57 -16 9 9 31 25 48 34 18 9 91 54 162 100 189 120 279 162 365 168 85 6 98 -2 174 -97 l55 -69 77 19 c42 10 149 26 238 35 245 24 367 49 450 91 99 50 177 105 210 147 20 27 34 36 56 36 43 0 49 -21 39 -125 -25 -250 -104 -467 -265 -725 -60 -96 -200 -245 -320 -340 -97 -76 -141 -99 -204 -107 -43 -5 -54 -2 -83 20 -19 14 -53 55 -77 92 -23 36 -46 64 -49 63 -3 -2 -25 -14 -47 -27 l-41 -25 129 -170 c71 -94 131 -181 135 -194 7 -28 -14 -107 -33 -123 -16 -13 -19 -50 -6 -64 17 -19 42 -142 53 -260 13 -146 4 -340 -22 -450 -10 -44 -19 -97 -19 -117 0 -20 -4 -39 -9 -42 -5 -4 -12 -30 -16 -59 -4 -28 -11 -68 -16 -88 -14 -54 -39 -295 -39 -374 0 -118 39 -324 66 -346 8 -6 14 -22 14 -35 0 -12 4 -26 10 -29 5 -3 17 -21 26 -40 9 -19 20 -35 25 -35 4 0 16 -16 25 -36 10 -20 67 -85 128 -145 l110 -109 -12 -72 c-15 -95 -39 -197 -51 -223 -5 -11 -22 -58 -37 -105 -32 -101 -53 -159 -65 -182 -5 -10 -9 -26 -9 -37 0 -10 -6 -24 -14 -30 -8 -7 -17 -24 -21 -39 -3 -15 -29 -72 -56 -128 -27 -55 -49 -108 -49 -116 0 -9 -7 -21 -16 -28 -14 -13 -54 -86 -54 -101 0 -4 -25 -47 -55 -96 -30 -50 -55 -94 -55 -100 0 -12 -55 -53 -72 -53 -7 0 -35 11 -63 25 -27 13 -57 25 -65 25 -8 0 -28 7 -45 16 -16 9 -46 20 -65 25 -19 4 -66 17 -105 29 -92 27 -238 42 -406 42 -157 0 -252 -13 -399 -52 -198 -53 -228 -64 -285 -99 -234 -144 -336 -155 -503 -55 -31 19 -60 34 -64 34 -5 0 -25 11 -46 24 -20 12 -48 26 -62 30 -14 4 -41 15 -60 23 -19 9 -48 20 -65 24 -16 5 -57 15 -90 24 -226 59 -512 59 -800 -1 -38 -8 -91 -19 -117 -24 -26 -5 -60 -16 -75 -24 -37 -20 -145 -56 -168 -56 -21 0 -55 27 -55 44 0 12 -33 79 -73 146 -36 60 -167 321 -167 331 0 5 -18 38 -40 74 -22 36 -40 71 -40 78 0 6 -7 21 -15 31 -8 11 -15 27 -15 37 0 9 -14 50 -31 90 -28 67 -39 103 -83 274 -7 28 -18 60 -24 72 -7 12 -12 46 -12 76 l0 53 96 90 c191 178 270 347 305 654 8 77 8 111 -5 180 -8 47 -22 128 -31 180 -14 89 -26 154 -61 340 -7 41 -18 102 -24 135 -13 69 -5 336 11 405 6 25 14 65 18 90 4 25 14 64 21 87 12 38 11 44 -8 68 -27 34 -38 105 -21 136 7 13 67 96 134 184 l122 160 -45 28 c-26 16 -48 24 -50 19 -5 -17 -97 -135 -120 -156 -18 -15 -30 -17 -73 -12 -64 9 -112 33 -209 104 -172 126 -308 294 -423 519 -70 139 -98 216 -136 387 -34 153 -41 263 -16 272 28 11 60 -5 118 -60 132 -123 255 -162 632 -201 83 -9 186 -23 229 -32 l80 -16 35 44 c86 105 92 110 151 115 94 10 206 -38 430 -184 63 -41 136 -86 162 -99 l48 -24 52 38 c67 48 103 73 142 97 17 10 35 24 39 32 4 8 13 14 19 14 6 0 43 20 82 44 39 24 89 53 111 65 22 12 54 30 70 41 17 11 48 29 70 40 22 11 63 34 90 50 90 53 230 119 250 119 11 0 35 -8 53 -17z"/>
 <path d="M3110 5795 c-259 -134 -263 -136 -335 -181 -27 -18 -68 -41 -90 -53 -22 -12 -101 -63 -175 -114 -116 -79 -135 -96 -138 -121 l-4 -30 37 28 c20 15 38 26 41 23 6 -6 -70 -67 -84 -67 -5 0 -12 -7 -16 -15 -3 -8 -15 -15 -26 -15 -11 0 -19 -4 -17 -9 1 -4 -36 -39 -82 -77 -134 -110 -136 -112 -131 -117 9 -9 194 -65 256 -78 l60 -12 68 53 c37 29 69 50 72 47 3 -3 -22 -26 -56 -52 -46 -35 -58 -50 -48 -56 23 -15 37 -10 93 36 49 40 136 101 187 131 10 6 26 18 36 27 10 10 22 17 26 17 5 0 29 15 55 33 25 19 53 37 61 41 8 3 29 15 45 26 17 11 39 24 50 30 11 6 38 21 60 34 22 14 60 35 85 49 25 13 59 32 75 42 30 17 32 17 75 -4 59 -28 127 -66 165 -91 17 -11 40 -24 53 -30 28 -12 231 -140 287 -181 22 -16 80 -58 128 -94 54 -39 98 -65 114 -65 15 0 23 5 21 12 -4 12 -249 194 -298 221 -14 8 -88 52 -165 99 -77 46 -187 109 -243 139 l-104 54 -101 -54 c-56 -30 -162 -91 -236 -135 -74 -45 -147 -88 -163 -97 -15 -9 -35 -22 -44 -30 -9 -7 -24 -18 -34 -24 -9 -5 -36 -23 -59 -39 -23 -16 -44 -27 -46 -24 -5 4 227 168 238 168 2 0 38 22 78 49 41 27 141 86 222 131 l147 82 87 -48 c224 -121 473 -280 651 -415 l102 -78 93 24 c50 14 121 32 157 41 80 20 99 35 73 55 -16 13 -17 12 -4 -3 21 -27 -4 -22 -36 8 -20 19 -23 24 -9 20 16 -5 17 -4 7 8 -7 8 -18 13 -24 11 -7 -3 -23 5 -37 16 -19 16 -20 19 -6 15 16 -5 17 -4 7 8 -7 8 -18 13 -25 10 -6 -2 -39 16 -71 42 -71 55 -76 59 -50 50 18 -7 18 -5 -3 17 -12 13 -22 32 -22 42 0 22 -4 25 -150 121 -199 132 -169 114 -394 239 -160 89 -329 174 -346 174 -8 0 -71 -29 -140 -64z m298 -46 c61 -33 112 -64 112 -69 0 -4 12 -11 28 -15 26 -6 248 -134 275 -158 7 -7 30 -21 50 -32 66 -36 280 -189 269 -193 -10 -3 -105 59 -127 82 -5 6 -21 17 -35 24 -37 18 -272 168 -292 186 -10 9 -23 16 -30 16 -6 0 -47 21 -92 47 -45 25 -129 70 -188 100 -59 29 -109 57 -113 62 -3 5 -26 -2 -51 -15 -26 -14 -49 -23 -51 -20 -9 9 8 26 45 45 44 22 45 22 200 -60z m-283 1 c6 -9 -52 -42 -125 -70 -19 -8 -44 -22 -54 -32 -17 -16 -69 -27 -53 -12 14 14 140 84 152 84 7 0 23 9 36 20 27 22 35 24 44 10z m180 -21 c7 -7 -7 -8 -40 -4 -54 6 -72 -2 -94 -43 -16 -29 -7 -69 21 -99 21 -22 65 -33 53 -13 -3 5 -12 7 -19 4 -8 -3 -17 -1 -20 5 -10 15 52 25 70 10 12 -10 19 -8 39 11 30 29 45 20 16 -9 -12 -12 -18 -21 -13 -21 4 0 -2 -7 -12 -15 -47 -36 -133 -3 -153 59 -25 73 31 140 107 129 19 -2 40 -9 45 -14z m47 -68 c1 -13 -3 -26 -9 -28 -9 -3 -13 7 -13 33 0 41 16 37 22 -5z m-482 -51 c0 -5 -13 -16 -29 -24 -16 -9 -91 -54 -166 -101 -75 -47 -141 -85 -146 -85 -5 0 -9 -4 -9 -10 0 -5 -8 -10 -17 -10 -15 0 -13 4 7 20 14 11 29 20 34 20 6 0 19 9 30 19 24 22 277 181 289 181 4 0 7 -4 7 -10z m-94 -145 c-20 -15 -36 -19 -36 -10 0 5 38 23 50 24 3 0 -4 -6 -14 -14z m970 0 c21 -16 12 -20 -15 -5 -21 11 -61 -12 -61 -35 0 -21 40 -85 54 -85 16 0 41 20 54 45 7 13 12 15 12 6 0 -25 -42 -61 -71 -61 -36 0 -71 30 -75 65 -3 36 5 52 37 70 32 18 42 18 65 0z m-914 -7 c8 -7 18 -28 22 -46 5 -27 1 -38 -19 -58 -31 -31 -69 -31 -100 1 -26 25 -31 50 -15 75 7 11 8 6 4 -16 -5 -24 -1 -37 15 -53 30 -30 46 -26 70 15 25 42 26 52 4 76 -18 20 -5 25 19 6z m958 -39 c0 -6 -4 -7 -10 -4 -5 3 -10 11 -10 16 0 6 5 7 10 4 6 -3 10 -11 10 -16z"/>
 <path d="M5999 5784 c-34 -36 -121 -95 -204 -136 -83 -42 -174 -63 -327 -78 -225 -23 -395 -50 -461 -76 -8 -3 -39 28 -80 80 -42 54 -76 88 -92 92 -70 17 -185 -30 -395 -163 -178 -112 -260 -167 -260 -174 0 -3 62 -56 138 -117 75 -60 150 -124 166 -141 l29 -30 -29 -11 c-290 -108 -622 -170 -1013 -190 -209 -11 -637 0 -802 20 -123 15 -393 78 -544 127 l-139 45 30 27 c17 14 94 80 172 145 78 66 142 121 142 122 0 2 -342 221 -410 262 -20 11 -73 35 -118 51 -118 44 -147 38 -211 -43 -83 -103 -73 -99 -182 -76 -52 10 -166 26 -254 35 -236 23 -322 39 -432 80 -64 25 -159 85 -218 141 l-30 28 -3 -51 c-3 -58 37 -251 75 -358 34 -95 123 -268 193 -373 121 -186 361 -386 483 -405 36 -6 39 -4 83 51 25 31 54 74 65 95 23 43 41 46 90 13 19 -13 52 -31 73 -40 47 -19 50 -12 -109 -221 -67 -88 -127 -170 -134 -183 -23 -44 21 -93 179 -199 293 -196 774 -332 1290 -364 239 -14 798 -14 1010 1 169 11 416 46 573 81 177 39 418 130 613 232 123 64 248 168 257 212 5 29 -31 84 -188 286 -47 60 -85 115 -85 121 0 14 130 98 152 98 7 0 38 -36 67 -80 30 -44 65 -87 78 -96 61 -40 176 29 376 225 117 114 172 193 270 386 86 168 157 414 157 542 0 40 -9 41 -41 7z m-1417 -1354 c26 -79 48 -147 48 -150 0 -3 -21 -12 -47 -19 -27 -7 -55 -15 -64 -18 -17 -5 -27 17 -44 91 -6 28 -7 29 -57 23 -28 -4 -72 -17 -97 -29 -50 -25 -52 -31 -36 -114 l7 -41 -62 -13 c-72 -15 -75 -13 -85 61 -14 98 33 143 193 186 100 27 103 28 96 53 -25 95 -26 89 25 104 25 8 52 14 60 13 9 -1 33 -57 63 -147z m-2511 124 c30 -9 55 -17 57 -19 1 -1 -5 -24 -13 -50 -9 -26 -13 -51 -8 -56 5 -5 52 -19 105 -33 115 -29 145 -44 187 -91 37 -42 39 -65 9 -98 -44 -48 -147 -52 -271 -13 -23 7 -62 19 -87 26 -47 13 -133 41 -138 45 -4 4 22 98 55 200 14 44 28 86 29 93 4 16 9 15 75 -4z m425 -105 c55 -9 64 -14 74 -40 13 -31 17 -33 127 -49 109 -15 141 -13 153 10 9 17 21 20 80 20 38 0 71 -4 75 -10 6 -9 -165 -219 -224 -274 l-30 -29 -82 11 c-45 7 -83 13 -84 14 -12 14 -165 334 -165 344 0 17 -2 17 76 3z m1540 -160 c17 -85 28 -157 25 -160 -3 -4 -35 -12 -70 -18 -56 -9 -67 -8 -90 7 -14 10 -42 26 -61 35 -19 10 -53 29 -75 42 -22 14 -49 29 -60 35 -11 5 -30 17 -42 26 -27 19 -27 23 -13 -96 11 -99 10 -100 -72 -100 l-56 0 -7 73 c-3 39 -7 113 -8 162 l-2 90 57 3 c55 2 61 0 201 -83 80 -47 147 -85 149 -85 3 0 -1 26 -7 58 -7 31 -15 78 -19 103 l-7 46 53 10 c29 6 58 9 63 8 6 -1 24 -71 41 -156z m-768 -41 l3 -128 83 0 c81 0 84 -1 90 -25 4 -14 4 -30 1 -35 -6 -10 -393 -14 -454 -4 -38 6 -41 9 -41 40 l0 33 90 -6 90 -6 1 29 c1 16 1 71 0 122 -1 52 1 98 5 103 3 6 33 9 67 7 l62 -3 3 -127z"/>
 <path d="M2077 4343 c-3 -10 -8 -28 -12 -40 -5 -17 -2 -23 9 -23 8 0 35 -7 60 -15 132 -45 218 5 93 53 -29 11 -65 23 -82 27 -16 3 -38 8 -47 11 -10 3 -18 -2 -21 -13z"/>
 <path d="M2646 4239 l36 -73 49 54 c27 30 49 57 49 60 0 3 -10 5 -22 6 -40 2 -132 15 -141 21 -4 3 8 -28 29 -68z"/>
 <path d="M3106 5312 c-11 -2 -36 -14 -55 -26 -20 -13 -44 -25 -53 -29 -27 -10 -22 -22 32 -76 134 -134 353 -119 470 31 l21 27 -57 36 -57 37 -141 2 c-78 1 -150 0 -160 -2z"/>
 <path d="M4205 5240 c3 -5 8 -10 11 -10 3 0 2 5 -1 10 -3 6 -8 10 -11 10 -3 0 -2 -4 1 -10z"/>
 <path d="M4245 5210 c3 -5 8 -10 11 -10 3 0 2 5 -1 10 -3 6 -8 10 -11 10 -3 0 -2 -4 1 -10z"/>
 <path d="M3486 5158 c-8 -12 -12 -26 -9 -31 3 -6 2 -7 -4 -4 -5 3 -20 -1 -32 -10 -19 -12 -20 -17 -10 -25 11 -8 10 -9 -2 -5 -9 3 -44 -3 -78 -13 -33 -11 -67 -17 -75 -14 -8 3 -17 1 -21 -5 -8 -14 -52 -14 -60 -1 -4 6 -10 8 -15 5 -17 -10 -86 14 -128 45 -48 35 -46 34 -64 17 -7 -7 -34 -23 -59 -35 -26 -13 -49 -32 -52 -42 -3 -12 -14 -20 -26 -20 -12 0 -30 -9 -41 -20 -11 -11 -29 -20 -40 -20 -11 0 -20 -5 -20 -10 0 -6 -12 -16 -27 -23 -16 -6 -33 -18 -39 -26 -7 -8 -16 -11 -24 -6 -8 5 -11 4 -6 -3 8 -14 78 -20 371 -32 264 -11 531 -2 747 26 l128 17 -45 33 c-53 41 -206 144 -213 144 -3 0 -20 11 -38 25 -18 14 -37 25 -42 25 -5 0 -15 7 -22 15 -17 21 -36 19 -54 -7z"/>
 <path d="M1345 4138 c-3 -13 -14 -61 -25 -108 -42 -177 -37 -392 16 -689 65 -366 74 -428 78 -533 8 -204 -19 -340 -99 -494 -55 -108 -108 -177 -217 -284 l-87 -86 14 -59 c29 -118 112 -373 150 -460 7 -16 20 -51 29 -77 9 -26 20 -56 25 -65 5 -10 28 -58 51 -108 23 -49 47 -98 52 -109 109 -209 141 -267 179 -319 3 -4 19 -1 35 7 87 43 234 89 375 118 98 19 145 23 334 23 224 0 309 -10 455 -51 77 -22 106 -32 180 -61 47 -18 155 -73 195 -98 117 -73 218 -72 329 3 42 29 147 82 241 121 48 21 168 52 260 68 76 14 153 18 325 18 194 0 240 -3 339 -23 97 -20 243 -62 316 -92 80 -33 85 -33 105 -15 11 10 20 23 20 29 0 6 11 27 24 46 46 69 169 309 221 435 9 22 22 54 29 70 7 17 18 41 23 55 6 14 18 42 27 63 9 21 16 43 16 50 1 7 9 30 20 52 11 22 19 47 20 55 0 8 15 62 34 120 18 58 39 127 45 154 l12 48 -89 88 c-112 112 -160 174 -215 280 -129 250 -135 424 -34 975 46 249 61 402 53 545 -7 130 -46 317 -66 312 -6 -1 -28 -15 -49 -31 -34 -27 -198 -114 -267 -142 -29 -12 -31 -15 -21 -38 6 -15 11 -92 10 -181 0 -126 -5 -183 -27 -305 -51 -277 -57 -310 -72 -410 -41 -281 -22 -550 53 -750 61 -161 150 -309 252 -417 l35 -38 -23 -72 c-13 -40 -27 -77 -31 -83 -4 -5 -13 -26 -18 -45 -13 -44 -43 -122 -67 -175 -24 -54 -107 -229 -109 -232 -1 -1 -26 4 -56 12 -195 53 -512 70 -770 41 -74 -8 -210 -38 -205 -45 2 -4 -12 -8 -31 -8 -19 -1 -41 -6 -49 -13 -8 -6 -19 -9 -24 -5 -9 5 -192 -50 -246 -74 -11 -5 -47 -21 -80 -36 -33 -14 -67 -33 -77 -42 -15 -14 -19 -13 -45 5 -25 17 -111 59 -168 81 -11 5 -31 13 -45 19 -14 5 -52 19 -85 29 -33 11 -76 25 -95 31 -53 17 -233 50 -345 63 -222 26 -570 4 -739 -46 -27 -8 -50 -14 -52 -12 -8 8 -107 226 -133 292 -5 11 -16 37 -25 58 -9 21 -16 43 -16 50 0 7 -6 24 -14 38 -7 15 -24 57 -36 93 -25 76 -30 60 62 174 67 82 82 107 141 227 50 103 71 153 85 210 6 22 15 58 21 80 25 97 35 285 22 434 -11 138 -22 205 -86 566 -28 157 -38 359 -22 462 l7 51 -85 41 c-46 22 -125 68 -175 101 -86 58 -90 59 -95 38z m297 -1085 c57 -68 -36 -163 -100 -103 -22 21 -30 74 -13 85 6 3 8 -8 4 -27 -6 -40 22 -71 59 -66 19 2 25 12 32 51 11 55 0 70 -46 64 -15 -2 -25 0 -22 5 10 15 71 8 86 -9z m3249 4 c-21 -10 -23 -16 -17 -55 7 -55 12 -62 40 -62 35 0 60 33 52 70 -3 19 -2 29 4 25 18 -11 11 -64 -12 -85 -28 -26 -68 -26 -96 1 -40 36 -17 120 32 118 20 0 20 -1 -3 -12z m54 3 c3 -6 -1 -7 -9 -4 -18 7 -21 14 -7 14 6 0 13 -4 16 -10z m-3335 -399 c0 -5 -11 -8 -25 -8 -13 0 -22 3 -19 8 3 5 14 9 25 9 10 0 19 -4 19 -9z m42 -3 c27 -23 48 -62 48 -90 0 -28 -59 -98 -83 -98 -7 0 -2 9 11 18 33 26 41 121 12 147 -32 29 -22 49 12 23z m3228 4 c0 -5 -9 -17 -20 -27 -29 -26 -21 -121 12 -147 13 -9 18 -18 11 -18 -6 0 -28 15 -47 34 -40 37 -46 69 -21 116 19 36 65 66 65 42z m54 -1 c3 -5 -6 -8 -19 -8 -14 0 -25 3 -25 8 0 5 9 9 19 9 11 0 22 -4 25 -9z m-3407 -53 c-12 -23 -22 -37 -25 -30 -4 13 25 72 37 72 5 0 -1 -19 -12 -42z m3458 11 c9 -17 15 -35 13 -41 -3 -7 -13 7 -25 30 -23 48 -12 58 12 11z m-3424 -130 c14 -11 18 -19 11 -19 -17 0 -72 57 -72 74 0 6 9 0 19 -13 10 -13 29 -32 42 -42z m3439 52 c0 -13 -56 -71 -69 -71 -6 0 6 18 27 39 42 44 42 44 42 32z m-3525 -321 c4 -6 -8 -10 -28 -10 -25 0 -39 -7 -50 -22 -9 -13 -16 -18 -16 -11 -1 16 48 53 70 53 10 0 21 -4 24 -10z m3619 -11 c14 -11 26 -26 25 -32 0 -7 -7 -2 -16 11 -11 15 -25 22 -50 22 -20 0 -32 4 -28 10 10 16 40 11 69 -11z m-3576 -51 c4 -34 -36 -78 -70 -78 -20 1 -19 3 9 15 30 13 31 16 26 55 -5 37 -4 42 13 38 12 -2 20 -13 22 -30z m3502 15 c0 -10 -5 -25 -10 -33 -6 -10 -4 -20 7 -33 15 -16 15 -17 1 -12 -20 8 -42 59 -34 80 8 21 36 19 36 -2z m-3633 -35 c-3 -8 -6 -5 -6 6 -1 11 2 17 5 13 3 -3 4 -12 1 -19z m3733 2 c0 -25 -38 -60 -64 -60 -16 0 -12 4 14 18 22 10 36 26 38 40 4 27 12 29 12 2z m-3704 -47 c-7 -7 -26 7 -26 19 0 6 6 6 15 -2 9 -7 13 -15 11 -17z m2311 -900 c-4 -3 -10 -3 -14 0 -3 4 0 7 7 7 7 0 10 -3 7 -7z m-1327 -19 c0 -9 6 -14 13 -11 6 2 11 10 10 16 -4 14 24 15 32 1 3 -5 1 -10 -6 -10 -23 0 8 -23 32 -24 12 0 24 -7 27 -15 3 -9 0 -12 -10 -8 -9 3 -36 9 -62 12 -25 4 -49 12 -52 17 -3 5 -17 -1 -30 -13 -13 -12 -27 -19 -31 -15 -9 8 51 66 67 66 6 0 10 -7 10 -16z m1713 2 c22 -17 7 -31 -45 -41 -45 -8 -49 4 -10 27 15 10 21 18 14 18 -8 0 -27 -14 -44 -30 -28 -28 -30 -36 -25 -78 5 -42 4 -45 -9 -27 -25 34 -17 75 22 111 37 36 68 42 97 20z m-376 -13 c-4 -3 -10 -3 -14 0 -3 4 0 7 7 7 7 0 10 -3 7 -7z m439 -29 c8 -20 12 -44 8 -53 -5 -12 -9 -7 -14 17 -4 19 -13 39 -19 45 -14 14 -14 27 0 27 5 0 17 -16 25 -36z m-2084 -3 c-1 -7 2 -10 8 -6 16 10 31 -41 20 -70 -13 -33 -18 -32 -12 3 3 25 -2 32 -34 51 -30 18 -35 24 -23 32 19 12 45 6 41 -10z m2356 10 c10 -6 7 -12 -12 -24 -14 -10 -30 -17 -36 -17 -14 0 -13 -53 2 -68 19 -19 59 -14 85 10 13 12 23 16 23 10 0 -17 -42 -42 -71 -42 -26 0 -51 21 -62 53 -8 22 10 70 23 62 6 -4 10 -3 9 2 -4 24 13 31 39 14z m-2436 -24 c-12 -13 -22 -28 -22 -34 0 -23 42 -63 68 -64 25 -2 25 -2 4 -6 -28 -6 -68 19 -77 47 -9 28 13 80 33 80 12 0 11 -5 -6 -23z m1748 7 c0 -2 -18 -4 -40 -4 -22 0 -40 3 -40 8 0 4 18 6 40 4 22 -2 40 -6 40 -8z m750 -14 c7 -17 10 -33 6 -37 -3 -3 -6 0 -6 7 0 8 -10 24 -22 37 -17 18 -18 23 -6 23 9 0 21 -14 28 -30z m-1999 -53 c-7 -20 -23 -42 -36 -51 -38 -25 -40 -19 -6 13 23 21 31 38 31 62 0 24 3 30 11 22 8 -8 8 -21 0 -46z m1289 -8 c0 -12 -3 -11 -37 3 -34 14 -73 11 -92 -7 -19 -19 -6 -63 24 -77 35 -16 85 6 85 38 0 27 15 32 24 9 7 -20 -14 -55 -34 -55 -12 0 -12 -2 -2 -9 11 -7 -12 -7 -75 -2 -7 1 -22 11 -33 23 -39 42 -5 113 61 127 28 6 38 3 57 -16 12 -13 22 -28 22 -34z m-971 15 c23 -29 26 -51 11 -74 -7 -11 -8 -6 -4 16 7 35 -7 51 -50 56 -41 4 -47 28 -8 28 21 0 37 -8 51 -26z m-87 1 c0 -5 -5 -11 -11 -13 -6 -2 -11 4 -11 13 0 9 5 15 11 13 6 -2 11 -8 11 -13z m-402 -16 c0 -6 -4 -7 -10 -4 -5 3 -10 11 -10 16 0 6 5 7 10 4 6 -3 10 -11 10 -16z m1807 -35 c-15 -13 -36 -24 -45 -24 -15 1 -15 2 2 15 11 8 25 15 32 15 6 0 15 7 18 16 4 9 10 14 14 10 4 -4 -6 -19 -21 -32z m-1427 2 c0 -15 11 -32 28 -45 15 -11 22 -21 16 -21 -7 0 -21 8 -32 18 -24 19 -40 72 -23 72 6 0 11 -11 11 -24z m-324 -11 c15 -11 16 -14 3 -15 -8 0 -24 7 -35 15 -15 11 -16 14 -3 15 8 0 24 -7 35 -15z m1639 5 c3 -5 2 -10 -4 -10 -5 0 -13 5 -16 10 -3 6 -2 10 4 10 5 0 13 -4 16 -10z m-1220 -50 c-3 -5 -14 -10 -23 -10 -15 0 -15 2 -2 10 20 13 33 13 25 0z m949 -38 c6 -10 -40 -10 -50 1 -4 4 4 7 19 7 14 0 28 -4 31 -8z"/>
 <path d="M4855 2970 c3 -5 8 -10 11 -10 3 0 2 5 -1 10 -3 6 -8 10 -11 10 -3 0 -2 -4 1 -10z"/>
 <path d="M1680 2570 c0 -7 3 -10 7 -7 3 4 3 10 0 14 -4 3 -7 0 -7 -7z"/>
 <path d="M1666 2533 c-6 -14 -5 -15 5 -6 7 7 10 15 7 18 -3 3 -9 -2 -12 -12z"/>
 <path d="M4810 2570 c0 -7 3 -10 7 -7 3 4 3 10 0 14 -4 3 -7 0 -7 -7z"/>
 <path d="M4820 2541 c0 -6 4 -13 10 -16 6 -3 7 1 4 9 -7 18 -14 21 -14 7z"/>
 <path d="M1500 2160 c0 -7 3 -10 7 -7 3 4 3 10 0 14 -4 3 -7 0 -7 -7z"/>
 <path d="M4580 3875 c-151 -53 -212 -67 -445 -105 -199 -32 -414 -50 -623 -51 -75 0 -157 -4 -181 -7 l-43 -7 98 -65 c126 -83 211 -109 282 -86 51 17 8 -35 -63 -75 -51 -28 -109 -39 -148 -28 l-30 9 25 -28 c66 -71 73 -109 48 -256 -19 -113 -18 -144 9 -195 10 -18 9 -21 -8 -21 -47 0 -141 64 -141 96 0 6 -6 23 -13 37 l-13 25 -28 -44 c-15 -24 -47 -59 -70 -77 -50 -39 -134 -82 -143 -74 -3 4 1 9 10 12 22 9 97 82 139 135 35 45 78 142 94 210 17 76 4 199 -29 270 -37 80 -89 149 -121 160 -16 5 -31 8 -33 6 -2 -2 -6 -36 -8 -75 -3 -40 -12 -85 -20 -102 -19 -36 -90 -89 -119 -89 -21 1 -21 1 -1 12 25 14 44 33 74 76 27 39 32 102 10 147 -13 28 -18 30 -79 32 -491 17 -794 62 -1104 164 -49 16 -91 27 -94 25 -7 -8 -9 -286 -2 -343 4 -34 3 -50 -3 -46 -7 4 -7 -1 -2 -13 8 -20 11 -48 19 -177 3 -42 7 -81 10 -86 3 -5 7 -31 10 -59 2 -27 6 -54 10 -60 3 -5 6 -21 5 -33 0 -13 3 -44 6 -69 9 -68 14 -121 14 -162 1 -35 4 -39 55 -63 97 -46 156 -132 161 -235 4 -76 -17 -137 -70 -197 -47 -54 -125 -93 -183 -93 -24 0 -31 -7 -46 -43 -64 -152 -150 -300 -233 -400 -13 -16 -23 -37 -23 -48 0 -17 41 -131 61 -171 5 -10 9 -22 9 -28 0 -6 10 -32 21 -58 36 -80 101 -217 104 -220 1 -1 53 6 115 18 62 11 155 23 209 26 53 4 99 12 104 18 4 6 12 28 17 48 19 67 140 167 203 168 29 0 19 -18 -14 -25 -77 -17 -178 -109 -163 -148 4 -11 13 -13 39 -7 19 4 35 6 37 5 2 -2 71 -9 153 -15 83 -7 165 -16 183 -20 28 -7 32 -6 32 12 0 63 -97 162 -171 174 -43 7 -53 24 -14 24 32 0 115 -39 122 -57 3 -7 10 -13 17 -13 27 0 97 -154 81 -180 -7 -12 27 -30 59 -30 14 0 45 -6 68 -14 24 -7 81 -25 128 -40 47 -15 96 -32 110 -38 29 -13 62 -27 143 -62 l57 -25 68 30 c37 17 76 34 87 39 11 4 31 12 45 18 43 19 218 73 319 99 31 7 35 13 51 69 17 62 50 118 83 143 41 30 109 61 133 61 38 0 28 -18 -15 -25 -70 -12 -164 -102 -173 -165 -2 -20 1 -25 17 -23 11 1 88 9 170 18 83 9 173 17 200 18 42 2 50 6 53 24 5 34 -69 98 -139 120 -58 18 -77 33 -40 33 33 0 126 -49 156 -82 35 -38 59 -81 68 -119 6 -25 10 -26 104 -32 54 -4 150 -16 212 -27 62 -12 115 -19 116 -18 2 2 22 44 45 93 23 50 48 102 56 117 8 14 14 31 14 38 0 7 6 26 14 43 7 18 27 68 44 112 l30 80 -19 25 c-94 122 -202 305 -245 416 -15 39 -18 42 -64 47 -62 8 -104 29 -158 80 -84 82 -103 210 -48 320 16 31 33 57 37 57 4 0 21 12 36 26 15 15 47 35 71 45 31 14 42 24 42 41 2 86 21 215 81 553 47 264 53 511 14 521 -6 1 -66 -17 -135 -41z m-1348 -252 c15 -15 28 -31 28 -35 0 -5 9 -21 20 -36 32 -45 52 -169 40 -247 -22 -138 -121 -274 -265 -367 -115 -74 -162 -141 -185 -268 -31 -169 70 -381 230 -482 65 -41 162 -69 232 -66 33 1 62 6 64 10 3 4 12 8 21 8 58 0 182 100 222 177 46 91 58 139 58 228 0 72 -4 95 -23 131 -31 58 -65 104 -78 104 -5 0 -19 9 -30 19 -12 10 -50 25 -86 33 -58 13 -70 12 -107 -2 -24 -9 -61 -33 -83 -55 -32 -32 -40 -46 -39 -75 l0 -35 16 49 c28 82 133 136 210 108 l28 -10 -27 -1 c-36 -1 -71 -56 -62 -100 8 -36 9 -35 -46 -16 -24 8 -45 13 -47 11 -3 -2 4 -7 14 -10 17 -5 28 -23 84 -141 15 -32 38 -59 61 -74 39 -25 41 -47 4 -36 -11 3 -33 8 -48 10 -55 8 -117 56 -148 115 -16 30 -27 9 -12 -23 26 -56 54 -131 59 -160 11 -64 6 -172 -10 -209 -14 -34 -20 -38 -51 -38 -19 0 -37 4 -40 9 -3 5 3 30 15 56 21 47 29 149 16 190 -4 11 -8 36 -11 55 -2 19 -9 48 -15 64 -7 16 -9 31 -7 34 3 2 1 12 -4 21 -15 30 -22 127 -11 168 14 53 65 121 99 134 15 6 39 16 55 24 31 15 141 14 172 -2 11 -6 38 -19 60 -29 58 -28 127 -101 159 -169 49 -102 39 -268 -22 -400 -30 -63 -117 -161 -162 -181 -117 -54 -169 -65 -272 -58 -40 3 -80 5 -88 5 -34 1 -191 73 -248 114 -46 33 -147 138 -166 172 -20 38 -41 81 -60 124 -22 51 -39 174 -32 233 l6 51 -30 -60 c-53 -105 -131 -158 -244 -164 l-49 -2 40 45 c25 29 51 74 68 122 23 62 35 81 68 105 22 16 34 29 26 30 -79 3 -125 24 -163 71 l-26 33 22 18 c12 10 27 16 35 13 32 -13 9 11 -28 28 -94 43 -121 153 -74 300 15 48 36 97 46 109 18 22 18 22 19 -26 0 -27 7 -63 15 -80 15 -31 72 -78 125 -105 14 -7 48 -32 74 -56 26 -24 45 -37 41 -28 -9 24 -19 102 -12 102 3 0 15 -19 26 -43 30 -63 104 -99 199 -99 34 0 35 -1 17 -14 -45 -33 -127 -39 -162 -12 -8 7 -10 3 -6 -11 3 -12 9 -21 14 -21 5 0 9 -4 9 -9 0 -14 -131 -5 -194 13 -127 37 -177 97 -189 226 -2 19 -5 7 -5 -27 -3 -109 52 -172 203 -233 11 -5 53 -16 93 -25 39 -10 72 -19 72 -22 0 -16 -26 -46 -57 -67 -20 -14 -38 -35 -40 -48 -2 -12 -10 -35 -18 -51 -8 -17 -15 -35 -15 -41 0 -20 -68 -118 -102 -147 -48 -41 -19 -36 36 6 54 42 118 126 142 185 9 23 22 39 28 37 7 -3 22 18 35 49 28 64 114 150 189 188 28 14 56 26 62 26 20 0 170 120 170 137 0 3 8 15 17 25 68 75 72 296 8 395 -21 31 -8 29 27 -4z m-16 -90 c33 -114 -4 -233 -104 -331 -69 -68 -134 -102 -208 -109 -70 -7 -117 3 -153 33 -56 46 -74 113 -51 181 12 33 63 63 109 63 67 0 94 -106 31 -123 -11 -3 -23 -1 -26 4 -3 5 1 9 8 9 26 0 37 20 26 50 -18 53 -97 49 -123 -7 -31 -64 8 -137 90 -169 38 -14 52 -15 92 -4 57 14 85 26 138 60 58 37 111 99 70 84 -8 -4 -15 -11 -15 -18 0 -6 -15 -20 -33 -31 -17 -10 -50 -30 -71 -42 -41 -25 -121 -47 -136 -38 -11 7 103 160 125 169 23 8 18 33 -9 40 -13 3 -36 22 -51 42 l-28 37 35 -7 c69 -13 116 3 170 57 27 27 51 47 54 44 3 -3 -6 -27 -20 -55 -26 -51 -68 -81 -118 -83 l-23 -1 25 -7 c25 -8 91 17 105 39 14 22 27 9 22 -20 -10 -46 -1 -36 17 21 16 48 16 91 0 167 -4 20 -2 22 15 12 13 -6 27 -32 37 -67z m-59 10 c-4 -3 -7 0 -7 7 0 7 3 10 7 7 3 -4 3 -10 0 -14z m-480 -320 c-4 -3 -7 0 -7 7 0 7 3 10 7 7 3 -4 3 -10 0 -14z m1143 -267 c0 -34 19 -83 58 -148 34 -58 52 -72 52 -42 0 8 13 29 29 45 23 22 39 29 70 29 40 0 61 -13 41 -25 -25 -15 -31 -59 -19 -125 7 -36 16 -69 21 -74 4 -6 8 -22 8 -37 0 -18 6 -30 19 -34 29 -9 94 22 116 54 10 16 22 28 26 26 3 -3 9 -26 13 -52 11 -82 -34 -176 -101 -208 -21 -10 -46 -22 -56 -27 -12 -6 -39 -5 -72 2 -29 6 -77 8 -106 5 -50 -6 -52 -5 -38 12 26 31 54 135 65 243 7 61 23 120 40 150 14 23 14 23 -10 -3 -27 -29 -46 -86 -52 -152 -8 -78 -61 -214 -100 -255 -8 -8 -21 -24 -29 -35 -16 -24 -31 -14 -16 12 18 31 42 125 48 182 6 65 -11 161 -37 204 -56 93 -62 109 -55 153 3 24 10 46 15 49 5 3 17 21 26 40 19 40 44 46 44 11z m-527 -74 c-70 -63 -95 -114 -96 -196 0 -41 8 -97 18 -131 10 -33 19 -67 19 -75 1 -9 6 -21 10 -29 5 -7 10 -51 12 -97 3 -65 -1 -95 -15 -132 -10 -26 -23 -45 -27 -43 -5 1 -8 7 -7 12 7 22 -23 118 -54 181 -32 63 -35 75 -30 131 3 34 8 70 12 79 5 13 2 15 -13 11 -27 -7 -76 21 -106 60 -31 41 -26 75 11 75 18 0 47 21 104 78 78 79 132 114 179 113 24 0 23 -2 -17 -37z m-540 -510 c12 -24 27 -53 34 -65 16 -30 142 -158 173 -176 101 -59 144 -81 154 -81 7 0 17 -5 24 -12 8 -8 15 -8 27 2 11 9 19 10 27 2 6 -6 16 -8 23 -5 7 2 27 -3 44 -11 37 -20 84 -20 178 -2 107 20 158 49 250 143 45 45 86 83 91 83 5 0 17 9 27 20 10 11 26 20 35 20 9 0 21 5 27 11 5 5 35 13 65 16 122 12 231 -53 262 -158 19 -62 19 -72 5 -123 -11 -41 -64 -101 -103 -115 -34 -14 -112 -6 -142 14 -44 28 -70 121 -38 132 7 2 14 -11 18 -30 5 -28 13 -36 46 -47 100 -33 175 70 126 172 -10 20 -34 47 -54 61 -32 20 -47 24 -101 21 -39 -2 -70 -9 -80 -18 -10 -9 -21 -16 -25 -16 -3 0 -40 -34 -80 -75 -40 -41 -80 -75 -89 -75 -8 0 -20 -7 -27 -15 -6 -8 -51 -26 -98 -41 -92 -29 -252 -40 -302 -22 -16 6 -26 6 -28 -1 -9 -26 -116 -63 -198 -68 -192 -12 -348 71 -426 226 -30 60 -33 74 -33 156 0 68 6 108 24 163 13 39 26 72 28 72 3 0 1 -24 -3 -52 -10 -68 -7 -108 12 -188 21 -85 33 -107 95 -174 91 -100 205 -146 309 -126 85 17 87 19 47 40 -20 11 -43 20 -50 20 -22 0 -127 78 -182 134 -74 75 -100 118 -142 226 -7 19 -15 69 -18 110 l-5 75 25 -90 c14 -49 36 -109 48 -133z m794 81 c-4 -3 -10 -3 -14 0 -3 4 0 7 7 7 7 0 10 -3 7 -7z"/>
 <path d="M2721 2774 c0 -11 3 -14 6 -6 3 7 2 16 -1 19 -3 4 -6 -2 -5 -13z"/>
 <path d="M3250 2630 c0 -7 3 -10 7 -7 3 4 3 10 0 14 -4 3 -7 0 -7 -7z"/>
 <path d="M3170 3370 c0 -7 3 -10 7 -7 3 4 3 10 0 14 -4 3 -7 0 -7 -7z"/>
 <path d="M3110 3325 c-7 -9 -10 -18 -7 -21 3 -3 10 4 17 15 13 25 8 27 -10 6z"/>
 <path d="M1921 2733 c1 -16 -6 -77 -15 -138 -28 -191 -37 -265 -31 -275 3 -4 -1 -11 -7 -13 -24 -10 30 -7 55 2 35 14 95 69 123 112 55 87 37 213 -41 293 -52 54 -85 61 -84 19z"/>
 <path d="M4507 2729 c-57 -47 -81 -101 -81 -184 -1 -79 20 -128 76 -184 32 -33 84 -61 110 -61 18 0 21 42 9 115 -16 95 -43 298 -43 323 -1 31 -26 28 -71 -9z"/>
 </g>
<g id="layer105" fill="#fefefe" stroke="none">
 <path d="M0 3255 l0 -3255 3250 0 3250 0 0 3255 0 3255 -3250 0 -3250 0 0 -3255z m3298 2667 c17 -9 80 -42 140 -73 59 -31 152 -80 206 -108 55 -28 106 -57 114 -63 8 -7 22 -17 32 -23 64 -36 181 -108 214 -132 22 -15 54 -37 72 -48 17 -11 50 -35 72 -53 40 -32 41 -32 59 -14 10 10 25 21 33 24 8 3 71 42 140 87 69 45 171 105 227 133 87 44 112 52 175 56 69 4 76 3 106 -23 18 -15 53 -53 77 -85 l45 -58 52 14 c83 22 151 32 320 49 231 22 299 38 405 90 65 32 115 66 168 115 41 39 81 70 89 70 8 0 22 -8 31 -17 19 -19 17 -60 -11 -233 -43 -256 -198 -576 -372 -768 -81 -89 -249 -230 -315 -263 -21 -11 -60 -23 -87 -26 -43 -5 -54 -2 -83 20 -19 14 -53 55 -76 91 -24 36 -45 66 -47 66 -7 0 -84 -52 -84 -57 0 -3 41 -58 90 -124 140 -184 170 -230 170 -259 0 -31 -25 -95 -40 -105 -12 -7 -13 -47 -2 -60 17 -19 42 -142 53 -260 13 -146 4 -340 -22 -450 -10 -44 -19 -97 -19 -117 0 -20 -4 -39 -9 -42 -5 -4 -12 -30 -16 -59 -4 -28 -11 -68 -16 -88 -14 -54 -39 -295 -39 -374 0 -118 39 -324 66 -346 8 -6 14 -22 14 -35 0 -12 4 -26 10 -29 5 -3 17 -21 26 -40 9 -19 20 -35 25 -35 4 0 16 -16 25 -36 10 -20 67 -85 128 -145 l110 -109 -12 -72 c-15 -95 -39 -197 -51 -223 -5 -11 -22 -58 -37 -105 -32 -101 -53 -159 -65 -182 -5 -10 -9 -26 -9 -37 0 -10 -6 -24 -14 -30 -8 -7 -17 -24 -21 -39 -3 -15 -29 -72 -56 -128 -27 -55 -49 -108 -49 -116 0 -9 -7 -21 -16 -28 -14 -13 -54 -86 -54 -101 0 -4 -25 -47 -55 -96 -30 -50 -55 -94 -55 -100 0 -12 -55 -53 -72 -53 -7 0 -35 11 -63 25 -27 13 -57 25 -65 25 -8 0 -28 7 -45 16 -16 9 -46 20 -65 25 -19 4 -66 17 -105 29 -92 27 -238 42 -406 42 -157 0 -252 -13 -399 -52 -198 -53 -228 -64 -285 -99 -234 -144 -336 -155 -503 -55 -31 19 -60 34 -64 34 -5 0 -25 11 -46 24 -20 12 -48 26 -62 30 -14 4 -41 15 -60 23 -19 9 -48 20 -65 24 -16 5 -57 15 -90 24 -226 59 -512 59 -800 -1 -38 -8 -91 -19 -117 -24 -26 -5 -60 -16 -75 -24 -37 -20 -145 -56 -168 -56 -21 0 -55 27 -55 44 0 6 -19 43 -41 81 -42 71 -166 313 -213 415 -13 30 -35 73 -47 95 -40 73 -49 93 -49 108 0 8 -14 48 -31 88 -28 67 -39 103 -83 274 -7 28 -18 60 -24 72 -7 12 -12 46 -12 76 l0 53 96 90 c191 178 270 347 305 654 8 77 8 111 -5 180 -8 47 -22 128 -31 180 -14 89 -26 154 -61 340 -7 41 -18 102 -24 135 -13 69 -5 336 11 405 6 25 14 65 18 90 4 25 13 64 21 86 11 38 11 44 -10 71 -27 37 -37 102 -19 134 7 13 66 94 131 180 65 86 118 159 118 162 0 11 -84 59 -88 49 -5 -16 -70 -102 -105 -139 -25 -27 -39 -33 -71 -33 -124 0 -399 222 -538 434 -80 121 -182 331 -212 436 -61 217 -84 404 -51 416 28 11 60 -5 130 -67 75 -66 175 -119 272 -144 32 -8 159 -27 282 -40 124 -14 254 -32 289 -40 35 -8 69 -15 76 -15 7 0 38 31 67 69 61 78 82 91 142 91 93 0 235 -64 432 -195 72 -47 145 -93 163 -100 32 -14 35 -13 85 23 66 47 102 72 141 96 17 10 35 24 39 32 4 8 13 14 19 14 6 0 43 20 82 44 39 24 89 53 111 65 22 12 54 30 70 41 17 11 48 29 70 40 22 11 63 34 90 50 90 53 230 119 250 119 11 0 35 -8 53 -17z"/>
 <path d="M3230 5840 c0 -6 7 -10 15 -10 8 0 15 2 15 4 0 2 -7 6 -15 10 -8 3 -15 1 -15 -4z"/>
 <path d="M3278 5833 c7 -3 16 -2 19 1 4 3 -2 6 -13 5 -11 0 -14 -3 -6 -6z"/>
 <path d="M3176 5808 c3 -4 9 -8 15 -8 5 0 9 4 9 8 0 5 -7 9 -15 9 -8 0 -12 -4 -9 -9z"/>
 <path d="M3327 5804 c3 -7 9 -14 14 -14 14 0 10 17 -5 23 -10 4 -13 1 -9 -9z"/>
 <path d="M3140 5800 c0 -6 7 -10 15 -10 8 0 15 2 15 4 0 2 -7 6 -15 10 -8 3 -15 1 -15 -4z"/>
 <path d="M5999 5784 c-34 -36 -121 -95 -204 -136 -83 -42 -174 -63 -327 -78 -225 -23 -395 -50 -461 -76 -8 -3 -39 28 -80 80 -42 54 -76 88 -92 92 -70 17 -185 -30 -395 -163 -178 -112 -260 -167 -260 -174 0 -3 62 -56 138 -117 75 -60 150 -124 166 -141 l29 -30 -29 -11 c-290 -108 -622 -170 -1013 -190 -209 -11 -637 0 -802 20 -123 15 -393 78 -544 127 l-139 45 30 27 c17 14 94 80 172 145 78 66 142 121 142 122 0 2 -342 221 -410 262 -20 11 -73 35 -118 51 -118 44 -147 38 -211 -43 -83 -103 -73 -99 -182 -76 -52 10 -166 26 -254 35 -236 23 -322 39 -432 80 -64 25 -159 85 -218 141 l-30 28 -3 -51 c-3 -58 37 -251 75 -358 34 -95 123 -268 193 -373 121 -186 361 -386 483 -405 36 -6 39 -4 83 51 25 31 54 74 65 95 23 43 41 46 90 13 19 -13 52 -31 73 -40 47 -19 50 -12 -109 -221 -67 -88 -127 -170 -134 -183 -23 -44 21 -93 179 -199 293 -196 774 -332 1290 -364 239 -14 798 -14 1010 1 169 11 416 46 573 81 177 39 418 130 613 232 123 64 248 168 257 212 5 29 -31 84 -188 286 -47 60 -85 115 -85 121 0 14 130 98 152 98 7 0 38 -36 67 -80 30 -44 65 -87 78 -96 61 -40 176 29 376 225 117 114 172 193 270 386 86 168 157 414 157 542 0 40 -9 41 -41 7z m-1419 -1350 c29 -85 50 -158 47 -160 -3 -3 -32 -14 -64 -24 l-58 -18 -21 62 c-24 71 -35 76 -119 51 -66 -19 -99 -48 -91 -78 3 -12 9 -38 12 -58 l6 -35 -52 -12 c-28 -7 -58 -12 -65 -12 -17 0 -35 59 -35 112 0 71 87 129 238 158 34 7 62 13 62 14 0 2 -7 26 -16 55 -8 29 -14 55 -11 57 2 2 28 13 58 23 30 11 55 20 56 20 1 1 25 -69 53 -155z m-2452 102 c2 -2 -4 -27 -12 -55 -12 -40 -12 -53 -3 -56 7 -2 55 -16 107 -30 117 -32 176 -65 197 -110 33 -68 -18 -118 -120 -117 -89 0 -399 83 -392 105 2 7 25 78 50 158 l45 147 62 -19 c34 -11 64 -21 66 -23z m442 -126 c14 -33 23 -36 157 -52 l102 -12 19 25 c18 22 25 24 91 21 41 -2 71 -8 71 -14 0 -11 -129 -168 -208 -252 l-45 -48 -66 6 c-112 12 -102 2 -189 179 -110 224 -109 207 -18 189 66 -13 76 -18 86 -42z m1465 -112 c15 -84 28 -157 29 -162 1 -5 -29 -16 -66 -23 l-67 -14 -73 41 c-40 22 -80 45 -88 50 -8 4 -39 23 -69 40 -29 17 -55 30 -57 28 -2 -2 1 -44 6 -93 11 -104 10 -105 -71 -105 l-57 0 -6 63 c-3 34 -8 108 -12 164 l-6 101 66 1 c62 0 71 -3 134 -43 88 -57 202 -119 207 -114 2 2 -2 44 -10 93 -8 50 -15 93 -15 97 0 5 71 22 116 27 6 0 22 -64 39 -151z m-765 -48 l0 -130 84 0 c78 0 84 -1 90 -22 12 -48 17 -47 -211 -48 -120 0 -233 2 -250 6 -29 6 -33 10 -33 40 l0 33 90 -6 90 -6 1 29 c1 16 0 75 0 132 l-2 102 71 0 70 0 0 -130z"/>
 <path d="M2072 4325 c-12 -42 -19 -37 91 -65 75 -19 127 -16 127 8 0 20 -43 46 -106 63 -36 10 -74 21 -83 24 -13 4 -20 -3 -29 -30z"/>
 <path d="M2645 4240 l36 -72 49 53 c27 30 49 56 50 59 0 3 -10 5 -22 6 -48 2 -129 14 -139 20 -6 3 6 -27 26 -66z"/>
 <path d="M3360 5796 c0 -2 8 -10 18 -17 15 -13 16 -12 3 4 -13 16 -21 21 -21 13z"/>
 <path d="M3104 5775 c-4 -9 -13 -13 -24 -10 -9 3 -23 -1 -30 -10 -7 -8 -16 -13 -20 -10 -5 3 -15 -1 -22 -9 -8 -7 -45 -28 -83 -45 -174 -81 -548 -323 -553 -359 -4 -25 5 -28 27 -8 48 41 438 291 523 335 15 8 24 19 21 24 -4 6 0 8 10 4 10 -4 27 4 45 21 16 15 37 25 47 24 10 -3 15 0 11 7 -5 7 2 11 18 11 21 0 56 22 56 36 0 11 -21 2 -26 -11z"/>
 <path d="M3240 5779 c0 -6 -6 -9 -14 -6 -8 3 -20 -1 -27 -9 -7 -8 -18 -13 -26 -10 -16 6 -18 -10 -2 -20 6 -3 16 -1 22 5 6 6 21 11 34 11 12 0 27 9 33 20 9 16 8 20 -5 20 -8 0 -15 -5 -15 -11z"/>
 <path d="M3293 5763 c-18 -7 -16 -23 2 -23 9 0 27 -12 40 -26 21 -22 26 -24 47 -13 20 10 21 10 12 -2 -8 -10 -9 -22 -2 -39 6 -14 12 -47 15 -74 4 -42 2 -48 -10 -38 -8 7 -15 33 -16 64 -2 71 -21 89 -21 20 0 -29 -4 -52 -9 -52 -6 0 -8 -10 -6 -21 6 -28 15 -37 15 -15 0 9 4 15 9 11 6 -3 9 -14 8 -25 -1 -16 -7 -18 -37 -14 -28 4 -31 2 -17 -6 9 -6 22 -8 27 -5 6 3 10 3 10 -2 0 -9 48 -33 67 -33 19 0 16 17 -4 25 -17 6 -17 8 2 21 17 13 18 16 5 24 -10 7 -11 10 -2 10 6 0 13 12 13 28 1 19 3 21 6 7 2 -11 6 -31 9 -44 6 -28 24 -16 27 18 1 11 7 21 15 21 7 0 11 -4 7 -9 -9 -15 30 -22 59 -11 34 13 33 13 40 -5 3 -8 2 -14 -2 -13 -4 1 -17 -3 -29 -10 -19 -10 -23 -10 -23 0 0 7 -6 4 -12 -7 -11 -19 -11 -19 -19 0 -7 18 -8 18 -8 2 -1 -10 -15 -31 -32 -48 -26 -25 -37 -30 -63 -25 -52 10 -57 12 -66 25 -4 8 -13 10 -20 6 -9 -5 -11 -4 -6 3 4 7 1 12 -8 12 -23 0 -20 21 4 27 11 3 20 10 20 15 0 15 -34 4 -53 -17 -13 -14 -17 -15 -14 -4 4 12 -1 14 -23 11 -15 -2 -31 1 -34 7 -4 6 -15 11 -25 11 -10 0 -24 7 -31 15 -15 18 -43 20 -37 3 2 -7 12 -13 23 -13 10 -1 18 -7 16 -14 -2 -9 4 -12 17 -8 17 4 19 0 12 -31 -1 -2 -8 3 -16 11 -8 9 -25 14 -38 13 -17 -2 -30 6 -43 26 -10 15 -22 28 -26 28 -5 0 -8 7 -8 15 0 9 -11 20 -25 25 -14 5 -25 12 -25 16 0 3 6 4 14 1 10 -4 14 0 13 14 -1 10 -9 19 -18 19 -45 0 -428 -230 -622 -374 -43 -32 -82 -54 -89 -50 -6 4 -8 3 -5 -3 3 -5 -43 -50 -103 -99 -60 -49 -109 -91 -110 -95 0 -10 263 -88 300 -89 9 0 60 34 115 76 123 94 304 214 495 328 201 120 186 107 148 128 -36 19 -25 24 18 8 15 -6 34 -8 42 -5 12 4 12 8 1 22 -12 15 -12 16 6 9 11 -4 32 -13 48 -18 15 -5 27 -14 27 -18 0 -5 13 -11 29 -15 16 -3 35 -13 42 -21 6 -8 20 -14 31 -14 12 0 17 -4 12 -12 -4 -6 -3 -8 4 -4 5 3 25 -6 43 -21 18 -16 60 -44 95 -63 93 -52 314 -201 434 -293 71 -55 113 -80 129 -79 25 2 283 72 290 78 3 2 -8 17 -23 33 -16 16 -25 34 -22 39 3 6 -2 8 -12 5 -10 -2 -26 5 -36 16 -12 13 -14 21 -7 21 7 0 10 4 6 10 -3 5 -11 7 -19 4 -7 -3 -62 32 -122 77 -60 45 -134 98 -164 117 -30 19 -91 59 -135 87 -120 79 -193 117 -206 109 -7 -4 -9 -3 -6 3 4 6 -6 13 -23 17 -17 3 -30 12 -30 20 0 18 -41 9 -53 -11 -5 -7 -13 -11 -18 -7 -6 3 -6 10 -1 17 16 20 11 48 -8 42 -9 -3 -25 2 -36 10 -25 19 -44 19 -44 0 0 -10 14 -17 40 -21 56 -9 58 -19 3 -18 -54 2 -63 10 -65 58 -1 26 -7 40 -21 48 -14 7 -17 7 -13 -1 11 -16 -10 -13 -28 4 -8 9 -18 16 -21 15 -20 -1 -25 1 -20 9 7 12 -6 20 -22 14z m-286 -110 c-4 -3 -10 -3 -14 0 -3 4 0 7 7 7 7 0 10 -3 7 -7z m0 -40 c-4 -3 -10 -3 -14 0 -3 4 0 7 7 7 7 0 10 -3 7 -7z m470 -10 c-4 -3 -10 -3 -14 0 -3 4 0 7 7 7 7 0 10 -3 7 -7z m-635 -154 c23 -27 17 -78 -12 -101 -64 -52 -148 21 -109 93 22 42 89 46 121 8z m922 10 c54 -42 23 -129 -47 -129 -49 0 -78 32 -73 78 7 65 68 92 120 51z m-307 -26 c-4 -3 -10 -3 -14 0 -3 4 0 7 7 7 7 0 10 -3 7 -7z"/>
 <path d="M2741 5434 c-30 -39 -14 -83 31 -84 24 0 64 68 51 89 -17 28 -58 25 -82 -5z m55 1 c-8 -8 -17 -15 -20 -15 -3 0 -3 7 0 15 4 8 13 15 21 15 12 0 12 -2 -1 -15z m-36 -61 c0 -8 -4 -12 -10 -9 -5 3 -10 10 -10 16 0 5 5 9 10 9 6 0 10 -7 10 -16z"/>
 <path d="M3679 5444 c-11 -13 -10 -22 6 -52 22 -41 54 -52 79 -27 21 22 20 37 -5 69 -23 29 -60 34 -80 10z m81 -68 c0 -3 -4 -8 -10 -11 -5 -3 -10 -1 -10 4 0 6 5 11 10 11 6 0 10 -2 10 -4z"/>
 <path d="M3410 5760 c0 -5 10 -10 23 -10 18 0 19 2 7 10 -19 13 -30 13 -30 0z"/>
 <path d="M3120 5730 c-13 -8 -12 -10 3 -10 9 0 17 -4 17 -10 0 -6 -9 -6 -25 0 -20 8 -23 7 -18 -7 5 -12 2 -15 -13 -11 -16 4 -20 0 -22 -23 -2 -26 0 -27 33 -26 33 2 54 24 47 50 -1 4 5 10 13 13 12 5 13 9 4 20 -13 16 -19 17 -39 4z m14 -39 c3 -5 -1 -14 -8 -20 -12 -10 -14 -9 -11 6 2 10 4 19 4 21 2 5 10 2 15 -7z"/>
 <path d="M3470 5729 c0 -5 5 -7 10 -4 6 3 10 8 10 11 0 2 -4 4 -10 4 -5 0 -10 -5 -10 -11z"/>
 <path d="M3198 5711 c-31 -25 -43 -64 -28 -92 10 -17 19 -20 77 -17 52 2 68 7 77 22 8 14 8 20 -1 23 -7 3 -13 9 -13 14 0 6 5 7 10 4 21 -13 9 25 -13 40 -41 26 -80 29 -109 6z m92 -41 c0 -5 -10 -10 -22 -9 -22 0 -22 1 -3 9 11 5 21 9 23 9 1 1 2 -3 2 -9z m-70 -4 c0 -2 -9 -6 -20 -9 -11 -3 -20 -1 -20 4 0 5 9 9 20 9 11 0 20 -2 20 -4z"/>
 <path d="M3503 5713 c4 -3 10 -3 14 0 3 4 0 7 -7 7 -7 0 -10 -3 -7 -7z"/>
 <path d="M3434 5688 c-4 -7 -3 -8 4 -4 12 7 16 16 8 16 -3 0 -8 -5 -12 -12z"/>
 <path d="M3556 5682 c-2 -4 7 -12 20 -19 26 -12 32 -5 12 15 -14 14 -25 15 -32 4z"/>
 <path d="M3621 5651 c-10 -7 -8 -11 10 -16 13 -4 26 -11 29 -15 3 -4 39 -29 80 -54 150 -93 177 -111 297 -197 67 -48 118 -80 113 -71 -5 10 -11 25 -14 34 -3 10 -59 53 -124 95 -226 149 -290 186 -309 179 -8 -3 -11 -1 -8 4 3 6 -2 13 -12 17 -10 3 -25 12 -33 19 -9 8 -21 10 -29 5z"/>
 <path d="M3550 5636 c0 -2 7 -7 16 -10 8 -3 12 -2 9 4 -6 10 -25 14 -25 6z"/>
 <path d="M3090 5615 c0 -8 7 -15 16 -15 14 0 14 3 4 15 -7 8 -14 15 -16 15 -2 0 -4 -7 -4 -15z"/>
 <path d="M3144 5538 c-4 -7 -3 -8 4 -4 12 7 16 16 8 16 -3 0 -8 -5 -12 -12z"/>
 <path d="M3240 5460 c0 -5 -6 -10 -13 -10 -41 0 -500 -267 -622 -363 -5 -4 -48 -35 -94 -69 -75 -56 -82 -63 -63 -71 18 -8 39 3 129 70 170 126 383 263 538 348 95 52 113 65 95 66 -8 1 1 5 20 8 22 5 39 3 45 -4 6 -7 21 -16 34 -20 14 -4 42 -20 64 -36 22 -16 46 -29 54 -29 7 0 13 -3 13 -8 0 -4 26 -23 58 -41 112 -67 249 -157 384 -253 121 -87 187 -119 176 -88 -5 15 -245 188 -348 250 -50 30 -107 65 -128 78 -20 12 -71 39 -112 60 -41 20 -76 40 -78 45 -2 4 -9 7 -16 7 -6 0 -36 16 -66 35 -57 37 -70 41 -70 25z"/>
 <path d="M3036 5272 c-26 -14 -46 -31 -46 -38 0 -6 25 -35 56 -63 95 -87 225 -107 339 -51 44 22 125 95 125 114 0 7 -19 23 -42 36 -41 23 -53 25 -215 26 -166 1 -174 0 -217 -24z"/>
 <path d="M3523 5145 c0 -16 4 -22 13 -18 8 3 14 -1 14 -10 0 -8 7 -20 15 -27 8 -7 15 -20 15 -30 0 -21 55 -81 66 -72 4 4 5 0 1 -9 -4 -12 5 -22 29 -35 19 -10 34 -24 34 -31 0 -16 22 -16 118 0 l73 12 -168 111 c-212 141 -210 140 -210 109z"/>
 <path d="M4400 5086 c0 -2 8 -10 18 -17 15 -13 16 -12 3 4 -13 16 -21 21 -21 13z"/>
 <path d="M3110 5050 c-8 -5 -29 -10 -46 -10 -16 0 -54 -11 -82 -25 -29 -14 -58 -25 -66 -25 -8 0 -17 -4 -20 -9 -4 -5 -37 -27 -74 -48 l-67 -38 115 -7 c180 -11 493 -14 518 -5 30 11 28 20 -18 68 -32 34 -42 40 -54 30 -11 -10 -17 -8 -25 6 -10 17 -10 17 -11 0 0 -14 -4 -16 -20 -7 -10 6 -17 16 -14 24 4 9 -10 19 -42 30 -53 18 -77 21 -54 6 12 -8 11 -10 -7 -10 -16 0 -21 4 -17 15 7 17 4 18 -16 5z"/>
 <path d="M1331 4065 c-59 -236 -50 -439 39 -900 53 -273 60 -508 21 -665 -44 -172 -151 -343 -308 -491 l-70 -66 43 -154 c24 -85 48 -163 52 -174 5 -11 24 -60 42 -110 72 -204 77 -215 179 -421 67 -135 163 -310 181 -328 5 -4 41 5 82 21 93 38 227 77 343 100 72 14 138 18 325 18 216 -1 245 -3 360 -28 136 -29 265 -74 375 -130 39 -20 99 -51 134 -69 52 -26 75 -32 120 -31 59 1 137 29 160 57 7 9 20 16 27 16 8 0 14 4 14 10 0 5 11 12 25 16 14 3 23 10 20 14 -3 4 5 10 16 13 17 5 20 11 15 31 -6 26 8 37 17 14 2 -7 7 -10 10 -7 11 10 -28 76 -42 71 -8 -3 -4 5 8 17 17 17 21 33 21 85 0 58 -2 65 -22 72 l-21 6 22 12 c24 13 19 28 -7 19 -10 -3 -7 2 6 12 35 26 183 74 294 96 105 20 141 17 92 -10 -23 -12 -25 -16 -11 -19 16 -3 25 -32 10 -32 -12 0 -11 -184 1 -192 7 -5 4 -8 -6 -8 -10 0 -18 -4 -18 -10 0 -5 9 -10 20 -10 11 0 20 -5 20 -11 0 -5 -4 -7 -10 -4 -5 3 -10 1 -10 -6 0 -8 13 -9 43 -5 314 47 665 11 949 -99 50 -20 95 -32 99 -28 15 16 113 191 169 304 116 231 214 481 286 726 l44 154 -88 87 c-131 130 -175 189 -242 328 -58 121 -74 210 -74 399 1 139 6 198 27 320 15 83 38 211 51 285 52 288 56 477 16 660 -26 121 -32 133 -52 118 -16 -12 -16 -19 2 -93 11 -44 19 -87 19 -95 0 -8 -11 23 -22 70 -12 47 -26 84 -30 84 -4 -1 -62 -30 -127 -64 l-119 -63 4 -46 c4 -44 4 -44 -4 -8 -10 46 -11 48 -39 40 -19 -5 -20 -8 -9 -27 8 -14 11 -74 11 -191 -1 -151 -6 -193 -39 -370 -68 -365 -77 -438 -77 -615 -1 -251 36 -420 136 -617 45 -90 135 -224 187 -278 16 -17 29 -37 29 -44 0 -52 -224 -601 -245 -601 -4 0 -33 6 -64 14 -150 39 -463 67 -586 54 -157 -16 -261 -31 -275 -39 -11 -6 -9 -8 9 -9 38 0 18 -11 -46 -25 -32 -7 -102 -25 -156 -39 -54 -15 -102 -24 -107 -21 -6 4 -10 2 -10 -3 0 -10 -54 -34 -62 -28 -1 2 -16 6 -31 10 -21 5 -27 4 -21 -5 5 -9 2 -10 -9 -6 -9 3 -55 -13 -107 -38 l-91 -45 -102 52 c-120 61 -192 88 -342 128 -163 44 -500 87 -589 75 -22 -3 -79 -7 -126 -10 -78 -5 -325 -44 -377 -60 -21 -7 -27 2 -69 91 -25 55 -53 117 -61 139 -9 22 -24 58 -33 80 -22 48 -86 228 -96 268 -5 23 -1 34 24 60 51 54 136 180 185 274 160 309 181 625 77 1158 -55 281 -72 491 -49 608 9 52 0 73 -28 62 -7 -2 -13 0 -13 5 0 5 -28 24 -62 41 -35 18 -89 50 -121 71 -32 22 -61 37 -64 34 -3 -3 -14 -34 -24 -68 -9 -35 -18 -55 -18 -45 -1 11 6 44 15 74 13 46 14 57 3 64 -8 5 -17 9 -20 9 -4 0 -16 -38 -28 -85z m26 -117 c-3 -7 -5 -2 -5 12 0 14 2 19 5 13 2 -7 2 -19 0 -25z m290 -30 c-3 -8 -6 -5 -6 6 -1 11 2 17 5 13 3 -3 4 -12 1 -19z m3510 -30 c-3 -7 -5 -2 -5 12 0 14 2 19 5 13 2 -7 2 -19 0 -25z m-3520 -70 c-3 -8 -6 -5 -6 6 -1 11 2 17 5 13 3 -3 4 -12 1 -19z m3230 -10 c-3 -7 -5 -2 -5 12 0 14 2 19 5 13 2 -7 2 -19 0 -25z m-3230 -140 c-2 -13 -4 -3 -4 22 0 25 2 35 4 23 2 -13 2 -33 0 -45z m11 -625 c57 -63 -35 -147 -106 -97 -25 17 -30 70 -9 96 34 43 77 43 115 1z m3322 -3 c29 -54 -2 -110 -61 -110 -81 0 -100 112 -24 140 26 9 73 -7 85 -30z m-3297 -401 c62 -63 12 -171 -80 -171 -86 0 -126 110 -64 173 40 39 103 39 144 -2z m3298 2 c40 -40 41 -102 2 -143 -33 -34 -58 -36 -60 -5 0 12 1 16 4 10 13 -35 64 7 65 54 1 42 -28 92 -55 93 -5 0 -5 -4 -2 -10 3 -5 2 -10 -4 -10 -5 0 -11 5 -13 11 -2 7 -13 9 -26 5 -20 -7 -22 -14 -22 -75 0 -60 3 -71 23 -84 21 -15 21 -16 2 -16 -11 0 -30 7 -41 17 -80 64 -46 176 54 180 36 2 49 -3 73 -27z m-3483 -432 c5 -11 12 -19 17 -17 6 2 11 -12 13 -29 4 -40 -34 -83 -73 -83 -59 0 -89 87 -43 130 29 27 76 27 86 -1z m3618 -7 c37 -49 6 -122 -53 -122 -37 0 -75 44 -71 83 2 17 8 31 13 31 6 -1 16 8 24 18 16 24 66 18 87 -10z m-3919 -679 c-4 -3 -7 0 -7 7 0 7 3 10 7 7 3 -4 3 -10 0 -14z m380 -150 c-4 -3 -7 0 -7 7 0 7 3 10 7 7 3 -4 3 -10 0 -14z m-312 -3 c3 -5 4 -10 1 -10 -3 0 -8 5 -11 10 -3 6 -4 10 -1 10 3 0 8 -4 11 -10z m22 -67 c-4 -3 -7 0 -7 7 0 7 3 10 7 7 3 -4 3 -10 0 -14z m23 -48 c0 -5 -5 -3 -10 5 -5 8 -10 20 -10 25 0 6 5 3 10 -5 5 -8 10 -19 10 -25z m17 -42 c-4 -3 -7 0 -7 7 0 7 3 10 7 7 3 -4 3 -10 0 -14z m1350 -10 c-4 -3 -10 -3 -14 0 -3 4 0 7 7 7 7 0 10 -3 7 -7z m50 -10 c-4 -3 -10 -3 -14 0 -3 4 0 7 7 7 7 0 10 -3 7 -7z m1408 -7 c35 -15 65 -59 65 -97 0 -40 -38 -88 -81 -100 -33 -10 -45 -10 -75 4 -82 39 -69 170 19 196 18 5 33 10 35 10 1 1 18 -5 37 -13z m-2368 -3 c-4 -3 -10 -3 -14 0 -3 4 0 7 7 7 7 0 10 -3 7 -7z m722 -19 c38 -32 49 -80 27 -122 -17 -33 -49 -56 -69 -49 -7 2 2 11 19 20 34 17 44 34 44 73 0 28 -20 38 -96 49 -55 7 -70 -4 -58 -42 5 -15 4 -16 -5 -3 -9 13 -11 11 -11 -7 0 -25 20 -47 61 -68 34 -18 37 -25 10 -25 -29 0 -79 46 -86 80 -8 36 17 93 48 108 39 19 83 14 116 -14z m278 20 c-3 -3 -12 -4 -19 -1 -8 3 -5 6 6 6 11 1 17 -2 13 -5z m-1408 -34 c11 -24 11 -24 -3 -6 -9 11 -16 24 -16 30 0 12 5 7 19 -24z m368 23 c-4 -3 -10 -3 -14 0 -3 4 0 7 7 7 7 0 10 -3 7 -7z m1120 -10 c-4 -3 -10 -3 -14 0 -3 4 0 7 7 7 7 0 10 -3 7 -7z m-729 -39 c28 -31 28 -54 1 -88 -47 -59 -144 -7 -123 66 11 36 48 61 79 52 11 -3 30 -17 43 -30z m2395 4 c38 -45 3 -118 -58 -118 -24 0 -39 7 -54 26 -24 30 -26 43 -10 78 22 48 86 56 122 14z m-1596 15 c-4 -3 -10 -3 -14 0 -3 4 0 7 7 7 7 0 10 -3 7 -7z m1027 -19 c3 -8 2 -12 -4 -9 -6 3 -10 10 -10 16 0 14 7 11 14 -7z m-2554 -39 c0 -5 -5 -3 -10 5 -5 8 -10 20 -10 25 0 6 5 3 10 -5 5 -8 10 -19 10 -25z m1625 25 c13 -6 15 -9 5 -9 -8 0 -22 4 -30 9 -18 12 -2 12 25 0z m2132 -7 c-4 -3 -7 0 -7 7 0 7 3 10 7 7 3 -4 3 -10 0 -14z m-2310 -35 c29 -27 29 -65 1 -95 -62 -66 -165 20 -112 95 21 30 79 30 111 0z m-392 2 c3 -5 1 -10 -4 -10 -6 0 -11 5 -11 10 0 6 2 10 4 10 3 0 8 -4 11 -10z m-1035 -21 c0 -6 -4 -7 -10 -4 -5 3 -10 11 -10 16 0 6 5 7 10 4 6 -3 10 -11 10 -16z m1090 17 c0 -3 -4 -8 -10 -11 -5 -3 -10 -1 -10 4 0 6 5 11 10 11 6 0 10 -2 10 -4z m2601 -49 c-10 -9 -11 -8 -5 6 3 10 9 15 12 12 3 -3 0 -11 -7 -18z m-3610 -112 l50 -91 127 42 c70 24 145 45 167 48 22 4 2 -5 -45 -18 -72 -20 -152 -49 -232 -81 -19 -8 -37 18 -107 150 -56 105 -25 67 40 -50z m1759 90 c0 -10 -16 -4 -40 16 l-25 20 33 -16 c17 -8 32 -18 32 -20z m667 18 c-4 -3 -7 0 -7 7 0 7 3 10 7 7 3 -4 3 -10 0 -14z m-1779 -70 c-10 -2 -26 -2 -35 0 -10 3 -2 5 17 5 19 0 27 -2 18 -5z m59 1 c-3 -3 -12 -4 -19 -1 -8 3 -5 6 6 6 11 1 17 -2 13 -5z m221 -1 c-10 -2 -26 -2 -35 0 -10 3 -2 5 17 5 19 0 27 -2 18 -5z m1719 1 c-3 -3 -12 -4 -19 -1 -8 3 -5 6 6 6 11 1 17 -2 13 -5z m306 -1 c-7 -2 -19 -2 -25 0 -7 3 -2 5 12 5 14 0 19 -2 13 -5z m-2406 -9 c-3 -3 -12 -4 -19 -1 -8 3 -5 6 6 6 11 1 17 -2 13 -5z m491 -1 c-10 -2 -28 -2 -40 0 -13 2 -5 4 17 4 22 1 32 -1 23 -4z m1422 -3 c0 -5 -4 -10 -10 -10 -5 0 -10 5 -10 10 0 6 5 10 10 10 6 0 10 -4 10 -10z m568 3 c-10 -2 -26 -2 -35 0 -10 3 -2 5 17 5 19 0 27 -2 18 -5z m517 -40 c-15 -27 -32 -52 -38 -58 -6 -5 2 13 18 40 15 28 30 53 32 58 2 4 7 7 10 7 2 0 -7 -21 -22 -47z m-3078 31 c-3 -3 -12 -4 -19 -1 -8 3 -5 6 6 6 11 1 17 -2 13 -5z m636 -1 c-7 -2 -19 -2 -25 0 -7 3 -2 5 12 5 14 0 19 -2 13 -5z m1984 1 c-3 -3 -12 -4 -19 -1 -8 3 -5 6 6 6 11 1 17 -2 13 -5z m-2670 -10 c-3 -3 -12 -4 -19 -1 -8 3 -5 6 6 6 11 1 17 -2 13 -5z m768 -4 l20 -9 -20 1 c-11 0 -31 4 -45 8 l-25 8 25 0 c14 0 34 -3 45 -8z m1995 0 c20 -6 21 -8 5 -8 -11 0 -31 4 -45 8 -20 6 -21 8 -5 8 11 0 31 -4 45 -8z m-1943 -16 c-3 -3 -12 -4 -19 -1 -8 3 -5 6 6 6 11 1 17 -2 13 -5z m2058 -15 c14 -6 9 -7 -15 -3 -19 4 -44 11 -55 15 -14 6 -9 7 15 3 19 -4 44 -11 55 -15z m-2018 5 c-3 -3 -12 -4 -19 -1 -8 3 -5 6 6 6 11 1 17 -2 13 -5z m30 -11 c-4 -3 -10 -3 -14 0 -3 4 0 7 7 7 7 0 10 -3 7 -7z m53 -13 c13 -8 13 -10 -2 -10 -9 0 -20 5 -23 10 -8 13 5 13 25 0z m2051 -20 c40 -16 77 -26 83 -23 8 4 8 2 1 -5 -8 -9 -32 -3 -90 19 -44 17 -82 33 -84 35 -12 11 25 1 90 -26z m-1902 -42 c46 -21 81 -41 79 -44 -3 -2 -36 11 -74 29 -38 19 -85 41 -104 51 -23 10 -26 14 -10 10 14 -3 63 -24 109 -46z m488 -20 c-7 -4 -7 -8 -2 -8 9 -1 -18 -16 -122 -69 -23 -11 -48 -21 -55 -21 -6 0 12 12 42 28 30 15 64 35 74 45 11 9 25 17 32 17 6 0 14 10 18 23 5 18 8 19 15 7 7 -10 6 -17 -2 -22z m-361 -56 c-4 -3 -14 2 -24 12 -16 18 -16 18 6 6 13 -6 21 -14 18 -18z m83 -38 c2 -2 -3 -4 -11 -4 -9 0 -26 9 -39 20 l-24 21 35 -17 c19 -9 37 -18 39 -20z m64 -11 c-7 -2 -19 -2 -25 0 -7 3 -2 5 12 5 14 0 19 -2 13 -5z"/>
 <path d="M1550 3038 c-25 -27 -26 -60 -2 -81 29 -27 52 -21 68 18 20 49 18 72 -8 79 -33 9 -35 8 -58 -16z m42 -13 c-2 -14 -6 -25 -8 -25 -2 0 -4 11 -4 25 0 14 4 25 9 25 4 0 6 -11 3 -25z m-19 -55 c-3 -11 -9 -17 -15 -14 -5 3 -4 12 3 20 16 19 18 18 12 -6z"/>
 <path d="M4885 3047 c-16 -13 -17 -17 -4 -58 17 -52 47 -64 73 -27 21 30 20 50 -4 76 -24 25 -39 27 -65 9z m38 -12 c4 -8 2 -17 -2 -20 -5 -2 -11 4 -14 15 -6 23 8 27 16 5z m22 -64 c3 -5 1 -12 -5 -16 -5 -3 -10 1 -10 9 0 18 6 21 15 7z"/>
 <path d="M1547 2638 c-21 -16 -35 -65 -28 -97 10 -37 53 -64 89 -56 37 8 40 15 33 89 -4 41 -11 62 -24 70 -14 8 -20 8 -27 -4 -5 -8 -8 -21 -5 -28 3 -7 0 -10 -6 -6 -6 3 -9 15 -6 25 6 22 -2 24 -26 7z m40 -145 c-4 -3 -7 0 -7 7 0 7 3 10 7 7 3 -4 3 -10 0 -14z"/>
 <path d="M1399 2183 c-13 -35 -4 -70 22 -84 16 -8 20 -8 14 0 -5 8 1 10 19 5 23 -5 26 -3 26 19 0 46 -12 87 -26 87 -8 0 -14 -4 -14 -10 0 -5 -5 -10 -11 -10 -5 0 -7 5 -4 10 3 6 1 10 -5 10 -6 0 -15 -12 -21 -27z"/>
 <path d="M5026 2188 c-15 -73 -14 -79 11 -89 49 -18 85 28 64 84 -8 21 -17 27 -41 27 -23 0 -31 -5 -34 -22z m54 8 c0 -3 -5 -8 -12 -12 -7 -4 -8 -3 -4 4 7 12 16 16 16 8z m-6 -88 c-3 -4 -9 -8 -15 -8 -5 0 -9 4 -9 8 0 5 7 9 15 9 8 0 12 -4 9 -9z"/>
 <path d="M4079 1136 c-2 -3 -17 -7 -32 -10 -39 -7 -47 -14 -47 -44 0 -67 58 -96 120 -61 46 26 56 49 40 90 -10 23 -18 29 -45 29 -17 0 -34 -2 -36 -4z m-49 -76 c0 -5 -2 -10 -4 -10 -3 0 -8 5 -11 10 -3 6 -1 10 4 10 6 0 11 -4 11 -10z m47 3 c-4 -3 -10 -3 -14 0 -3 4 0 7 7 7 7 0 10 -3 7 -7z"/>
 <path d="M2004 1106 c-15 -24 -15 -28 0 -51 25 -37 91 -47 82 -12 -1 7 -1 9 1 5 9 -16 23 -7 23 15 0 22 -9 29 -82 65 -4 2 -14 -8 -24 -22z m13 -23 c-4 -3 -7 0 -7 7 0 7 3 10 7 7 3 -4 3 -10 0 -14z m40 -20 c-4 -3 -10 -3 -14 0 -3 4 0 7 7 7 7 0 10 -3 7 -7z"/>
 <path d="M4428 1108 c-41 -24 -48 -47 -22 -73 23 -23 63 -15 87 17 19 25 19 28 3 52 -20 31 -21 31 -68 4z m59 -25 c-4 -3 -7 0 -7 7 0 7 3 10 7 7 3 -4 3 -10 0 -14z m-56 -26 c-6 -8 -9 -17 -6 -21 3 -3 0 -2 -6 3 -12 10 -4 31 13 31 7 0 7 -4 -1 -13z"/>
 <path d="M2725 1040 c-4 -6 -1 -18 7 -27 9 -12 9 -15 1 -9 -7 4 -13 3 -13 -2 0 -13 20 -28 47 -36 31 -10 75 31 67 62 -5 19 -13 22 -55 22 -26 0 -51 -5 -54 -10z m52 -37 c-4 -3 -10 -3 -14 0 -3 4 0 7 7 7 7 0 10 -3 7 -7z"/>
 <path d="M4580 3875 c-266 -93 -570 -140 -998 -154 -144 -4 -216 -11 -220 -18 -5 -8 -13 -9 -22 -3 -8 6 -24 10 -35 10 -30 0 168 -126 228 -145 67 -21 90 -24 102 -15 18 14 58 15 62 3 3 -7 0 -13 -6 -13 -6 0 -11 -7 -11 -17 0 -9 -3 -13 -7 -10 -3 4 -16 -1 -27 -12 -38 -35 -100 -61 -143 -61 -24 0 -43 -5 -43 -11 0 -5 5 -7 10 -4 6 3 10 0 10 -8 0 -21 27 -42 33 -25 2 7 3 -39 2 -102 -1 -64 -7 -125 -13 -137 -16 -30 -14 -123 3 -153 8 -14 14 -28 15 -31 0 -14 -31 -18 -58 -7 -15 6 -34 12 -42 14 -8 2 -20 11 -27 21 -8 10 -19 25 -27 34 -7 9 -16 28 -20 43 -7 27 -7 28 -27 10 -11 -10 -17 -24 -14 -31 2 -8 0 -11 -5 -8 -6 3 -13 0 -16 -8 -8 -22 -135 -113 -152 -109 -9 2 -13 -2 -9 -10 4 -11 -3 -13 -26 -10 l-32 5 35 26 c52 39 140 129 140 143 0 7 -17 -5 -38 -27 -48 -51 -118 -108 -158 -128 -49 -25 -114 -96 -143 -157 -23 -49 -26 -66 -25 -165 0 -85 5 -121 21 -161 24 -62 92 -162 129 -192 16 -12 43 -33 59 -46 33 -25 78 -50 111 -60 15 -4 24 -2 27 9 4 8 3 14 -1 14 -22 -4 -27 6 -28 49 -1 33 -11 70 -35 118 -31 62 -34 77 -34 156 0 47 -2 82 -5 78 -3 -5 -12 -5 -20 0 -8 6 -11 10 -5 10 5 0 -11 10 -35 23 -47 23 -70 57 -73 105 -2 27 -2 27 56 31 18 1 52 33 117 109 19 22 36 39 39 37 2 -3 16 4 31 15 16 11 43 20 62 20 25 0 29 3 18 10 -12 8 -11 10 8 10 12 0 22 -4 22 -9 0 -6 -27 -37 -60 -71 -33 -34 -60 -65 -60 -71 0 -5 26 17 58 49 72 73 120 87 231 69 39 -7 69 -15 66 -18 -3 -3 14 -14 37 -24 55 -24 123 -95 156 -165 64 -136 22 -386 -86 -505 -99 -109 -200 -147 -377 -141 -96 3 -120 7 -185 34 -92 39 -164 88 -241 165 -107 106 -178 293 -167 435 l5 56 -24 -50 c-49 -101 -139 -161 -250 -163 -35 -1 -63 1 -63 3 0 3 13 12 30 21 33 17 68 73 99 155 21 56 62 110 84 110 8 0 7 4 -3 9 -8 6 -18 7 -22 5 -27 -17 -158 68 -158 102 0 7 12 20 27 27 l27 15 -32 16 c-17 9 -44 33 -59 53 -26 34 -28 43 -28 127 0 63 5 102 16 126 9 19 27 62 40 95 l24 60 3 -45 c6 -113 26 -148 116 -199 29 -17 73 -48 98 -70 l45 -40 -14 52 c-12 47 -11 57 8 114 28 85 81 125 144 109 26 -7 55 -51 55 -84 0 -40 -66 -69 -78 -34 -2 8 2 12 13 10 10 -2 22 5 29 15 9 15 6 22 -16 42 -24 21 -32 23 -58 13 -85 -29 -61 -157 37 -199 26 -11 53 -17 62 -13 13 6 11 8 -6 11 -29 5 -29 12 4 43 14 14 39 46 55 73 17 26 34 47 39 47 6 0 8 4 5 9 -3 5 1 12 9 15 12 4 5 16 -30 49 -56 54 -58 68 -7 56 20 -4 48 -6 62 -2 33 7 120 65 120 79 0 6 9 23 20 37 11 14 20 38 19 54 l-1 28 -7 -30 c-12 -46 -45 -94 -82 -119 -33 -22 -79 -39 -79 -29 0 2 22 25 48 51 54 52 69 101 52 161 -16 56 -25 61 -112 61 -298 0 -720 56 -966 128 -83 24 -135 35 -139 29 -15 -24 -17 -433 -3 -486 6 -23 10 -88 9 -144 -1 -56 0 -125 3 -154 3 -33 1 -54 -6 -57 -7 -3 -7 -7 2 -14 10 -6 11 -22 5 -63 -12 -79 5 -140 43 -153 56 -21 92 -46 124 -86 17 -22 29 -44 25 -50 -3 -5 -2 -10 4 -10 5 0 14 -22 20 -50 12 -58 2 -130 -28 -187 -41 -80 -145 -152 -221 -153 -34 0 -35 -1 -67 -83 -39 -97 -113 -224 -189 -324 l-56 -73 27 -82 c14 -46 31 -93 36 -105 5 -13 14 -35 20 -50 7 -16 15 -37 20 -48 4 -11 27 -62 51 -113 42 -92 43 -93 73 -87 110 23 203 36 291 42 l100 6 18 49 c9 27 34 68 54 90 36 40 120 88 155 88 34 0 16 -18 -40 -39 -70 -25 -72 -27 -107 -73 l-27 -37 33 -5 c71 -12 108 -16 238 -27 74 -6 137 -11 140 -11 38 -3 38 7 0 64 -31 47 -91 86 -167 109 -53 15 -47 29 9 21 100 -13 208 -92 199 -145 -1 -5 3 -6 8 -3 12 8 22 -20 14 -41 -5 -12 -3 -14 7 -8 10 6 12 2 8 -17 -8 -41 12 -55 120 -82 120 -30 269 -84 364 -132 l68 -34 67 31 c38 18 79 37 93 44 40 20 197 72 294 97 84 22 89 24 92 52 2 16 8 32 15 36 6 4 9 12 6 17 -9 15 34 87 68 116 64 53 106 69 180 70 123 1 214 -60 259 -173 l22 -55 95 -7 c84 -6 248 -30 305 -44 19 -5 26 7 64 93 23 54 46 102 51 107 5 6 9 16 9 23 0 7 9 32 19 56 11 23 29 74 41 112 13 39 26 74 30 79 5 4 -22 48 -59 97 -38 49 -77 106 -87 126 -10 21 -31 57 -46 81 -15 24 -39 77 -54 118 -27 74 -27 74 -64 74 -52 0 -153 53 -190 100 -33 41 -63 116 -56 137 3 7 0 15 -6 19 -16 10 -2 107 23 154 27 52 76 93 135 115 27 10 52 21 56 24 4 3 9 47 13 97 6 93 24 215 70 459 36 192 52 356 43 435 -9 80 -16 110 -26 109 -4 0 -63 -20 -132 -44z m-1675 -495 c3 -5 4 -10 1 -10 -3 0 -8 5 -11 10 -3 6 -4 10 -1 10 3 0 8 -4 11 -10z m915 -416 c0 -31 38 -125 57 -140 7 -6 13 -16 13 -21 0 -5 9 -18 20 -28 17 -15 20 -16 20 -3 0 8 9 27 21 42 18 22 28 26 75 26 56 0 70 -14 39 -40 -21 -18 -19 -84 6 -166 30 -95 36 -101 89 -74 23 12 49 34 58 51 22 37 28 36 36 -2 16 -80 -5 -173 -47 -208 -9 -7 -14 -17 -11 -22 3 -5 -1 -9 -8 -9 -8 0 -30 -8 -50 -19 -31 -15 -56 -18 -155 -16 -107 3 -118 5 -115 21 2 10 9 23 16 29 7 5 18 24 24 40 14 37 55 276 48 282 -6 6 -12 -19 -31 -122 -9 -49 -23 -107 -31 -129 -8 -21 -13 -41 -10 -43 3 -3 -5 -15 -18 -27 -12 -11 -31 -35 -40 -52 -18 -31 -54 -60 -63 -51 -2 3 5 25 16 50 51 111 55 272 10 362 -31 60 -52 98 -59 105 -16 15 7 97 42 148 33 48 48 53 48 16z m-533 -21 c-4 -3 -10 -3 -14 0 -3 4 0 7 7 7 7 0 10 -3 7 -7z m-76 -19 c-17 -13 -25 -14 -34 -5 -9 9 -8 11 6 6 10 -4 17 -2 17 4 0 6 8 11 17 11 14 0 13 -3 -6 -16z m-264 -171 c-4 -3 -7 0 -7 7 0 7 3 10 7 7 3 -4 3 -10 0 -14z m90 10 c-4 -3 -10 -3 -14 0 -3 4 0 7 7 7 7 0 10 -3 7 -7z m-332 -241 c50 -238 278 -464 482 -478 36 -2 72 -9 79 -15 21 -17 181 -7 223 14 19 9 40 17 47 17 23 0 120 67 148 102 88 108 154 150 251 156 103 7 195 -33 244 -104 49 -71 36 -210 -25 -263 -45 -39 -149 -62 -179 -38 -43 33 -57 49 -69 83 -13 39 -8 75 13 89 7 4 11 -3 11 -18 0 -39 36 -77 73 -77 47 0 77 10 77 26 0 8 4 14 9 14 16 0 33 59 27 94 -13 68 -73 116 -144 116 -84 0 -177 -48 -157 -80 3 -5 0 -8 -7 -5 -7 3 -22 -8 -33 -24 -11 -17 -21 -28 -24 -26 -2 3 -17 -9 -34 -26 -16 -17 -34 -32 -41 -33 -6 -2 -33 -13 -59 -24 -85 -38 -155 -50 -275 -48 -105 2 -116 0 -148 -22 -94 -64 -282 -62 -414 4 -137 68 -220 197 -220 343 0 70 31 199 55 235 18 25 18 19 1 -62 -12 -56 -12 -72 3 -140 24 -104 56 -167 116 -228 56 -56 123 -94 198 -113 40 -9 57 -9 105 5 l57 17 -61 27 c-34 16 -70 35 -80 43 -11 9 -43 34 -72 57 -29 23 -56 48 -59 56 -3 8 -18 28 -34 45 -35 37 -84 137 -98 199 -11 45 -15 168 -6 159 2 -3 11 -37 20 -77z m1342 -339 c-4 -3 -10 -3 -14 0 -3 4 0 7 7 7 7 0 10 -3 7 -7z m-1060 -150 c-4 -3 -10 -3 -14 0 -3 4 0 7 7 7 7 0 10 -3 7 -7z"/>
 <path d="M3150 3710 c0 -20 2 -25 10 -23 4 1 6 -7 3 -18 -3 -12 -2 -24 4 -28 15 -10 51 -92 59 -134 8 -44 -4 -189 -15 -182 -5 2 -14 -8 -20 -23 -7 -15 -20 -38 -29 -52 -18 -26 -24 -60 -12 -60 10 0 60 62 60 74 0 6 7 25 16 41 18 33 31 174 19 202 -5 10 -7 21 -7 26 1 4 -11 32 -27 62 -29 54 -26 80 6 53 31 -25 85 -120 99 -174 27 -104 12 -215 -43 -317 -17 -31 -28 -59 -23 -62 13 -8 80 149 80 189 0 12 3 26 7 29 12 13 4 112 -15 178 -17 61 -88 188 -104 189 -5 0 -17 9 -28 20 -22 22 -40 26 -40 10z"/>
 <path d="M3152 3494 c-7 -27 -21 -58 -30 -69 -17 -20 -17 -20 4 -2 11 9 23 15 26 12 2 -3 11 6 18 20 9 17 10 34 4 56 l-9 32 -13 -49z"/>
 <path d="M3060 3394 l-25 -15 25 7 c14 3 29 10 35 15 15 14 -7 10 -35 -7z"/>
 <path d="M2381 3214 c-2 -76 34 -141 101 -180 65 -39 149 -70 211 -79 26 -4 50 -11 53 -17 9 -13 -24 -58 -56 -76 -17 -10 -31 -28 -34 -44 -11 -55 -73 -174 -113 -216 -22 -23 -38 -42 -36 -42 2 0 21 11 42 24 59 38 109 109 162 231 16 35 23 45 26 32 4 -14 10 -8 28 24 29 55 96 138 113 139 6 0 12 5 12 10 0 6 6 10 13 10 7 0 37 13 67 30 30 16 66 34 79 40 13 6 41 24 63 41 28 23 36 35 28 44 -5 6 -6 16 -2 20 13 15 -23 -9 -50 -34 -15 -13 -25 -28 -21 -34 3 -6 2 -7 -4 -4 -6 4 -28 -2 -49 -12 -22 -11 -67 -25 -102 -31 -70 -14 -74 -23 -12 -22 53 1 41 -18 -26 -37 -35 -11 -57 -12 -85 -4 -35 9 -37 9 -29 -8 6 -10 10 -20 10 -22 0 -11 -170 2 -215 17 -57 18 -119 65 -141 107 -8 16 -19 55 -23 87 l-9 57 -1 -51z m719 -48 c0 -3 -5 -8 -12 -12 -7 -4 -8 -3 -4 4 7 12 16 16 16 8z"/>
 <path d="M2681 3220 c0 -8 4 -22 9 -30 12 -18 12 -2 0 25 -6 13 -9 15 -9 5z"/>
 <path d="M3044 3198 c-4 -7 -3 -8 4 -4 7 4 12 9 12 12 0 8 -9 4 -16 -8z"/>
 <path d="M3010 3180 c-9 -6 -10 -10 -3 -10 6 0 15 5 18 10 8 12 4 12 -15 0z"/>
 <path d="M2700 3164 c0 -32 117 -100 137 -80 4 3 -1 6 -11 6 -26 0 -78 30 -103 59 -13 14 -23 21 -23 15z"/>
 <path d="M2953 3153 c4 -3 10 -3 14 0 3 4 0 7 -7 7 -7 0 -10 -3 -7 -7z"/>
 <path d="M2918 3143 c7 -3 16 -2 19 1 4 3 -2 6 -13 5 -11 0 -14 -3 -6 -6z"/>
 <path d="M3423 2833 c9 -2 23 -2 30 0 6 3 -1 5 -18 5 -16 0 -22 -2 -12 -5z"/>
 <path d="M3344 2814 c-19 -15 -19 -15 1 -6 11 5 27 12 35 15 13 5 13 6 -1 6 -8 1 -24 -6 -35 -15z"/>
 <path d="M3461 2794 l-43 -26 4 -59 c3 -48 2 -55 -9 -41 -7 9 -13 13 -13 9 0 -5 -7 -1 -16 7 -21 22 -40 20 -23 -1 8 -10 17 -20 20 -23 3 -3 18 -37 34 -77 16 -39 32 -70 35 -68 4 2 13 -5 21 -16 7 -11 31 -24 52 -30 59 -16 35 -33 -38 -26 -82 8 -111 22 -164 76 -24 25 -39 37 -33 26 5 -11 21 -54 35 -96 20 -62 25 -91 22 -160 -1 -51 -9 -99 -19 -123 l-17 -39 33 8 c18 4 54 10 79 14 47 7 104 42 91 56 -4 5 -2 5 5 1 14 -8 93 60 93 80 0 8 4 14 9 14 16 0 60 114 71 185 17 109 -7 197 -73 265 -34 35 -85 70 -102 70 -5 0 -30 -12 -54 -26z m99 -8 c0 -3 -5 -8 -12 -12 -7 -4 -8 -3 -4 4 7 12 16 16 16 8z m-55 -35 c3 -5 1 -12 -5 -16 -5 -3 -10 1 -10 9 0 18 6 21 15 7z m-128 -318 c-4 -3 -10 -3 -14 0 -3 4 0 7 7 7 7 0 10 -3 7 -7z"/>
 <path d="M3206 2748 c-3 -13 -6 -48 -6 -78 0 -62 23 -152 33 -128 3 9 0 21 -6 27 -8 8 -12 48 -12 106 0 52 -1 95 -1 95 -1 0 -4 -10 -8 -22z"/>
 <path d="M1948 2748 c10 -12 10 -17 1 -20 -7 -2 -16 -33 -20 -69 -4 -35 -12 -100 -18 -144 -6 -44 -14 -100 -17 -125 -3 -25 -8 -48 -11 -52 -2 -5 4 -8 13 -8 16 0 16 -1 -2 -16 -18 -14 -18 -15 6 -8 42 11 73 31 107 66 104 108 83 295 -42 374 -24 15 -27 15 -17 2z"/>
 <path d="M4518 2735 c-75 -51 -112 -181 -79 -279 17 -48 73 -111 122 -137 45 -23 73 -25 45 -4 -18 14 -18 15 -2 15 13 0 16 5 11 20 -4 11 -8 34 -10 50 -14 106 -27 195 -30 201 -3 3 -5 32 -6 63 -2 42 -6 56 -17 56 -12 0 -12 3 -2 15 22 26 6 26 -32 0z"/>
 <path d="M2010 2746 c0 -2 8 -10 18 -17 15 -13 16 -12 3 4 -13 16 -21 21 -21 13z"/>
 <path d="M3230 2510 c0 -7 3 -10 7 -7 3 4 3 10 0 14 -4 3 -7 0 -7 -7z"/>
 <path d="M3260 2360 c0 -7 3 -10 7 -7 3 4 3 10 0 14 -4 3 -7 0 -7 -7z"/>
 <path d="M3250 2240 c0 -7 3 -10 7 -7 3 4 3 10 0 14 -4 3 -7 0 -7 -7z"/>
 <path d="M3236 2204 c-4 -9 -4 -19 -1 -22 2 -3 7 3 11 12 4 9 4 19 1 22 -2 3 -7 -3 -11 -12z"/>
 <path d="M4020 1552 c-72 -27 -109 -54 -141 -101 -35 -54 -37 -71 -6 -65 12 2 78 9 147 14 130 11 196 18 242 26 25 5 25 7 13 31 -18 33 -73 70 -143 93 -67 23 -56 23 -112 2z"/>
 <path d="M3543 1163 c4 -3 10 -3 14 0 3 4 0 7 -7 7 -7 0 -10 -3 -7 -7z"/>
 <path d="M3693 1052 c-43 -6 -37 -73 7 -87 23 -7 71 14 78 34 3 9 0 11 -9 5 -12 -7 -12 -5 -1 9 8 9 11 20 8 25 -7 11 -51 19 -83 14z m2 -42 c3 -5 -1 -10 -9 -10 -9 0 -16 5 -16 10 0 6 4 10 9 10 6 0 13 -4 16 -10z"/>
 <path d="M3808 893 c6 -2 18 -2 25 0 6 3 1 5 -13 5 -14 0 -19 -2 -12 -5z"/>
 </g>

</svg>